<?xml version="1.0" encoding="UTF-8" standalone="no"?>
<svg
   xmlns:ns3="http://www.iki.fi/pav/software/textext/"
   xmlns:dc="http://purl.org/dc/elements/1.1/"
   xmlns:cc="http://creativecommons.org/ns#"
   xmlns:rdf="http://www.w3.org/1999/02/22-rdf-syntax-ns#"
   xmlns:svg="http://www.w3.org/2000/svg"
   xmlns="http://www.w3.org/2000/svg"
   xmlns:xlink="http://www.w3.org/1999/xlink"
   xmlns:sodipodi="http://sodipodi.sourceforge.net/DTD/sodipodi-0.dtd"
   xmlns:inkscape="http://www.inkscape.org/namespaces/inkscape"
   height="346.91293pt"
   version="1.1"
   viewBox="0 0 454.01341 346.91293"
   width="454.0134pt"
   id="svg1751"
   sodipodi:docname="kspec.svg"
   inkscape:version="1.0.1 (3bc2e813f5, 2020-09-07)">
  <sodipodi:namedview
     pagecolor="#ffffff"
     bordercolor="#666666"
     borderopacity="1"
     objecttolerance="10"
     gridtolerance="10"
     guidetolerance="10"
     inkscape:pageopacity="0"
     inkscape:pageshadow="2"
     inkscape:window-width="1920"
     inkscape:window-height="1027"
     id="namedview1753"
     showgrid="false"
     inkscape:zoom="1.2736515"
     inkscape:cx="312.01785"
     inkscape:cy="175.59503"
     inkscape:window-x="0"
     inkscape:window-y="0"
     inkscape:window-maximized="1"
     inkscape:current-layer="svg1751"
     inkscape:document-rotation="0"
     fit-margin-top="10"
     fit-margin-bottom="10"
     fit-margin-left="0"
     fit-margin-right="0" />
  <metadata
     id="metadata1353">
    <rdf:RDF>
      <cc:Work>
        <dc:type
           rdf:resource="http://purl.org/dc/dcmitype/StillImage" />
        <dc:date>2021-01-05T22:17:42.518086</dc:date>
        <dc:format>image/svg+xml</dc:format>
        <dc:creator>
          <cc:Agent>
            <dc:title>Matplotlib v3.3.3, https://matplotlib.org/</dc:title>
          </cc:Agent>
        </dc:creator>
        <dc:title></dc:title>
      </cc:Work>
    </rdf:RDF>
    <rdf:RDF>
      <cc:Work
         rdf:about="">
        <dc:title />
      </cc:Work>
    </rdf:RDF>
  </metadata>
  <defs
     id="defs1357">
    <style
       type="text/css"
       id="style1355">*{stroke-linecap:butt;stroke-linejoin:round;}</style>
    <defs
       id="defs1707">
      <path
         d="m -3,3 6,-6 m -6,0 6,6"
         id="mc0ebe1401c"
         style="stroke:#2ca02c" />
    </defs>
  </defs>
  <defs
     id="defs1749">
    <clipPath
       id="p3f6f3298b7">
      <rect
         height="303.608"
         width="403.6561"
         x="46.343887"
         y="10.8"
         id="rect1746" />
    </clipPath>
  </defs>
  <g
     id="ytick_1"
     transform="translate(3.613395,-0.39999989)">
    <g
       id="line2d_30">
      <defs
         id="defs1581">
        <path
           d="M 0,0 H -3.5"
           id="mbbce1847f8"
           style="stroke:#000000;stroke-width:0.8" />
      </defs>
      <g
         id="g1585">
        <use
           style="stroke:#000000;stroke-width:0.8"
           x="46.343887"
           xlink:href="#mbbce1847f8"
           y="289.21042"
           id="use1583"
           width="100%"
           height="100%" />
      </g>
    </g>
    <g
       id="text_4">
      <!-- $\mathdefault{10^{-10}}$ -->
      <g
         transform="matrix(0.1,0,0,-0.1,11.443889,293.00964)"
         id="g1598">
        <use
           transform="translate(0,0.765625)"
           xlink:href="#DejaVuSans-49"
           id="use1588"
           x="0"
           y="0"
           width="100%"
           height="100%" />
        <use
           transform="translate(63.623047,0.765625)"
           xlink:href="#DejaVuSans-48"
           id="use1590"
           x="0"
           y="0"
           width="100%"
           height="100%" />
        <use
           transform="matrix(0.7,0,0,0.7,128.20312,39.046875)"
           xlink:href="#DejaVuSans-8722"
           id="use1592"
           x="0"
           y="0"
           width="100%"
           height="100%" />
        <use
           transform="matrix(0.7,0,0,0.7,186.85547,39.046875)"
           xlink:href="#DejaVuSans-49"
           id="use1594"
           x="0"
           y="0"
           width="100%"
           height="100%" />
        <use
           transform="matrix(0.7,0,0,0.7,231.3916,39.046875)"
           xlink:href="#DejaVuSans-48"
           id="use1596"
           x="0"
           y="0"
           width="100%"
           height="100%" />
      </g>
    </g>
  </g>
  <g
     id="ytick_2"
     transform="translate(3.613395,-0.39999989)">
    <g
       id="line2d_31">
      <g
         id="g1604">
        <use
           style="stroke:#000000;stroke-width:0.8"
           x="46.343887"
           xlink:href="#mbbce1847f8"
           y="241.0995"
           id="use1602"
           width="100%"
           height="100%" />
      </g>
    </g>
    <g
       id="text_5">
      <!-- $\mathdefault{10^{-8}}$ -->
      <g
         transform="matrix(0.1,0,0,-0.1,15.843889,244.89872)"
         id="g1618">
        <defs
           id="defs1608">
          <path
             d="m 31.78125,34.625 q -7.03125,0 -11.0625,-3.765625 -4.015625,-3.765625 -4.015625,-10.34375 0,-6.59375 4.015625,-10.359375 4.03125,-3.765625 11.0625,-3.765625 7.03125,0 11.078125,3.78125 4.0625,3.796875 4.0625,10.34375 0,6.578125 -4.03125,10.34375 Q 38.875,34.625 31.78125,34.625 Z m -9.859375,4.1875 Q 15.578125,40.375 12.03125,44.71875 8.5,49.078125 8.5,55.328125 q 0,8.734375 6.21875,13.8125 6.234375,5.078125 17.0625,5.078125 10.890625,0 17.09375,-5.078125 6.203125,-5.078125 6.203125,-13.8125 0,-6.25 -3.546875,-10.609375 Q 48,40.375 41.703125,38.8125 q 7.125,-1.65625 11.09375,-6.5 3.984375,-4.828125 3.984375,-11.796875 0,-10.609375 -6.46875,-16.28125 -6.46875,-5.65625 -18.53125,-5.65625 -12.046875,0 -18.53125,5.65625 -6.46875,5.671875 -6.46875,16.28125 0,6.96875 4,11.796875 4.015625,4.84375 11.140625,6.5 z M 18.3125,54.390625 q 0,-5.65625 3.53125,-8.828125 3.546875,-3.171875 9.9375,-3.171875 6.359375,0 9.9375,3.171875 3.59375,3.171875 3.59375,8.828125 0,5.671875 -3.59375,8.84375 -3.578125,3.171875 -9.9375,3.171875 -6.390625,0 -9.9375,-3.171875 Q 18.3125,60.0625 18.3125,54.390625 Z"
             id="DejaVuSans-56" />
        </defs>
        <use
           transform="translate(0,0.765625)"
           xlink:href="#DejaVuSans-49"
           id="use1610"
           x="0"
           y="0"
           width="100%"
           height="100%" />
        <use
           transform="translate(63.623047,0.765625)"
           xlink:href="#DejaVuSans-48"
           id="use1612"
           x="0"
           y="0"
           width="100%"
           height="100%" />
        <use
           transform="matrix(0.7,0,0,0.7,128.20312,39.046875)"
           xlink:href="#DejaVuSans-8722"
           id="use1614"
           x="0"
           y="0"
           width="100%"
           height="100%" />
        <use
           transform="matrix(0.7,0,0,0.7,186.85547,39.046875)"
           xlink:href="#DejaVuSans-56"
           id="use1616"
           x="0"
           y="0"
           width="100%"
           height="100%" />
      </g>
    </g>
  </g>
  <g
     id="ytick_3"
     transform="translate(3.613395,-0.39999989)">
    <g
       id="line2d_32">
      <g
         id="g1624">
        <use
           style="stroke:#000000;stroke-width:0.8"
           x="46.343887"
           xlink:href="#mbbce1847f8"
           y="192.98859"
           id="use1622"
           width="100%"
           height="100%" />
      </g>
    </g>
    <g
       id="text_6">
      <!-- $\mathdefault{10^{-6}}$ -->
      <g
         transform="matrix(0.1,0,0,-0.1,15.843889,196.7878)"
         id="g1638">
        <defs
           id="defs1628">
          <path
             d="m 33.015625,40.375 q -6.640625,0 -10.53125,-4.546875 -3.875,-4.53125 -3.875,-12.4375 0,-7.859375 3.875,-12.4375 3.890625,-4.5625 10.53125,-4.5625 6.640625,0 10.515625,4.5625 3.875,4.578125 3.875,12.4375 0,7.90625 -3.875,12.4375 Q 39.65625,40.375 33.015625,40.375 Z M 52.59375,71.296875 V 62.3125 q -3.71875,1.75 -7.5,2.671875 -3.78125,0.9375 -7.5,0.9375 -9.765625,0 -14.921875,-6.59375 -5.140625,-6.59375 -5.875,-19.921875 2.875,4.25 7.21875,6.515625 4.359375,2.265625 9.578125,2.265625 10.984375,0 17.359375,-6.671875 6.375,-6.65625 6.375,-18.125 0,-11.234375 -6.640625,-18.03125 -6.640625,-6.78125 -17.671875,-6.78125 -12.65625,0 -19.34375,9.6875 -6.6875,9.703125 -6.6875,28.109375 0,17.28125 8.203125,27.5625 8.203125,10.28125 22.015625,10.28125 3.71875,0 7.5,-0.734375 3.78125,-0.734375 7.890625,-2.1875 z"
             id="DejaVuSans-54" />
        </defs>
        <use
           transform="translate(0,0.765625)"
           xlink:href="#DejaVuSans-49"
           id="use1630"
           x="0"
           y="0"
           width="100%"
           height="100%" />
        <use
           transform="translate(63.623047,0.765625)"
           xlink:href="#DejaVuSans-48"
           id="use1632"
           x="0"
           y="0"
           width="100%"
           height="100%" />
        <use
           transform="matrix(0.7,0,0,0.7,128.20312,39.046875)"
           xlink:href="#DejaVuSans-8722"
           id="use1634"
           x="0"
           y="0"
           width="100%"
           height="100%" />
        <use
           transform="matrix(0.7,0,0,0.7,186.85547,39.046875)"
           xlink:href="#DejaVuSans-54"
           id="use1636"
           x="0"
           y="0"
           width="100%"
           height="100%" />
      </g>
    </g>
  </g>
  <g
     id="ytick_4"
     transform="translate(3.613395,-0.39999989)">
    <g
       id="line2d_33">
      <g
         id="g1644">
        <use
           style="stroke:#000000;stroke-width:0.8"
           x="46.343887"
           xlink:href="#mbbce1847f8"
           y="144.87767"
           id="use1642"
           width="100%"
           height="100%" />
      </g>
    </g>
    <g
       id="text_7">
      <!-- $\mathdefault{10^{-4}}$ -->
      <g
         transform="matrix(0.1,0,0,-0.1,15.843889,148.67688)"
         id="g1658">
        <defs
           id="defs1648">
          <path
             d="M 37.796875,64.3125 12.890625,25.390625 h 24.90625 z m -2.59375,8.59375 h 12.40625 V 25.390625 h 10.40625 V 17.1875 H 47.609375 V 0 h -9.8125 V 17.1875 H 4.890625 v 9.515625 z"
             id="DejaVuSans-52" />
        </defs>
        <use
           transform="translate(0,0.684375)"
           xlink:href="#DejaVuSans-49"
           id="use1650"
           x="0"
           y="0"
           width="100%"
           height="100%" />
        <use
           transform="translate(63.623047,0.684375)"
           xlink:href="#DejaVuSans-48"
           id="use1652"
           x="0"
           y="0"
           width="100%"
           height="100%" />
        <use
           transform="matrix(0.7,0,0,0.7,128.20312,38.965625)"
           xlink:href="#DejaVuSans-8722"
           id="use1654"
           x="0"
           y="0"
           width="100%"
           height="100%" />
        <use
           transform="matrix(0.7,0,0,0.7,186.85547,38.965625)"
           xlink:href="#DejaVuSans-52"
           id="use1656"
           x="0"
           y="0"
           width="100%"
           height="100%" />
      </g>
    </g>
  </g>
  <g
     id="ytick_5"
     transform="translate(3.613395,-0.39999989)">
    <g
       id="line2d_34">
      <g
         id="g1664">
        <use
           style="stroke:#000000;stroke-width:0.8"
           x="46.343887"
           xlink:href="#mbbce1847f8"
           y="96.766747"
           id="use1662"
           width="100%"
           height="100%" />
      </g>
    </g>
    <g
       id="text_8">
      <!-- $\mathdefault{10^{-2}}$ -->
      <g
         transform="matrix(0.1,0,0,-0.1,15.843889,100.56596)"
         id="g1678">
        <defs
           id="defs1668">
          <path
             d="M 19.1875,8.296875 H 53.609375 V 0 H 7.328125 v 8.296875 q 5.609375,5.8125 15.296875,15.59375 9.703125,9.796875 12.1875,12.640625 4.734375,5.3125 6.609375,9 1.890625,3.6875 1.890625,7.25 0,5.8125 -4.078125,9.46875 -4.078125,3.671875 -10.625,3.671875 -4.640625,0 -9.796875,-1.609375 -5.140625,-1.609375 -11,-4.890625 v 9.96875 Q 13.765625,71.78125 18.9375,73 q 5.1875,1.21875 9.484375,1.21875 11.328125,0 18.0625,-5.671875 6.734375,-5.65625 6.734375,-15.125 0,-4.5 -1.6875,-8.53125 Q 49.859375,40.875 45.40625,35.40625 44.1875,33.984375 37.640625,27.21875 31.109375,20.453125 19.1875,8.296875 Z"
             id="DejaVuSans-50" />
        </defs>
        <use
           transform="translate(0,0.765625)"
           xlink:href="#DejaVuSans-49"
           id="use1670"
           x="0"
           y="0"
           width="100%"
           height="100%" />
        <use
           transform="translate(63.623047,0.765625)"
           xlink:href="#DejaVuSans-48"
           id="use1672"
           x="0"
           y="0"
           width="100%"
           height="100%" />
        <use
           transform="matrix(0.7,0,0,0.7,128.20312,39.046875)"
           xlink:href="#DejaVuSans-8722"
           id="use1674"
           x="0"
           y="0"
           width="100%"
           height="100%" />
        <use
           transform="matrix(0.7,0,0,0.7,186.85547,39.046875)"
           xlink:href="#DejaVuSans-50"
           id="use1676"
           x="0"
           y="0"
           width="100%"
           height="100%" />
      </g>
    </g>
  </g>
  <g
     id="ytick_6"
     transform="translate(3.613395,-0.39999989)">
    <g
       id="line2d_35">
      <g
         id="g1684">
        <use
           style="stroke:#000000;stroke-width:0.8"
           x="46.343887"
           xlink:href="#mbbce1847f8"
           y="48.655823"
           id="use1682"
           width="100%"
           height="100%" />
      </g>
    </g>
    <g
       id="text_9">
      <!-- $\mathdefault{10^{0}}$ -->
      <g
         transform="matrix(0.1,0,0,-0.1,21.743889,52.455042)"
         id="g1693">
        <use
           transform="translate(0,0.765625)"
           xlink:href="#DejaVuSans-49"
           id="use1687"
           x="0"
           y="0"
           width="100%"
           height="100%" />
        <use
           transform="translate(63.623047,0.765625)"
           xlink:href="#DejaVuSans-48"
           id="use1689"
           x="0"
           y="0"
           width="100%"
           height="100%" />
        <use
           transform="matrix(0.7,0,0,0.7,128.20312,39.046875)"
           xlink:href="#DejaVuSans-48"
           id="use1691"
           x="0"
           y="0"
           width="100%"
           height="100%" />
      </g>
    </g>
  </g>
  <g
     id="xtick_1"
     transform="translate(3.613395,-0.39999989)">
    <g
       id="line2d_1">
      <defs
         id="defs1366">
        <path
           d="M 0,0 V 3.5"
           id="m356d1239e3"
           style="stroke:#000000;stroke-width:0.8" />
      </defs>
      <g
         id="g1370">
        <use
           style="stroke:#000000;stroke-width:0.8"
           x="64.691895"
           xlink:href="#m356d1239e3"
           y="314.40799"
           id="use1368"
           width="100%"
           height="100%" />
      </g>
    </g>
    <g
       id="text_1">
      <!-- $\mathdefault{10^{-1}}$ -->
      <g
         transform="matrix(0.1,0,0,-0.1,52.941894,329.00644)"
         id="g1386">
        <defs
           id="defs1376">
          <path
             d="m 12.40625,8.296875 h 16.109375 v 55.625 L 10.984375,60.40625 v 8.984375 l 17.4375,3.515625 H 38.28125 V 8.296875 H 54.390625 V 0 H 12.40625 Z"
             id="DejaVuSans-49" />
          <path
             d="m 31.78125,66.40625 q -7.609375,0 -11.453125,-7.5 Q 16.5,51.421875 16.5,36.375 q 0,-14.984375 3.828125,-22.484375 3.84375,-7.5 11.453125,-7.5 7.671875,0 11.5,7.5 3.84375,7.5 3.84375,22.484375 0,15.046875 -3.84375,22.53125 -3.828125,7.5 -11.5,7.5 z m 0,7.8125 q 12.265625,0 18.734375,-9.703125 6.46875,-9.6875 6.46875,-28.140625 0,-18.40625 -6.46875,-28.109375 -6.46875,-9.6875 -18.734375,-9.6875 -12.25,0 -18.71875,9.6875 Q 6.59375,17.96875 6.59375,36.375 q 0,18.453125 6.46875,28.140625 6.46875,9.703125 18.71875,9.703125 z"
             id="DejaVuSans-48" />
          <path
             d="M 10.59375,35.5 H 73.1875 V 27.203125 H 10.59375 Z"
             id="DejaVuSans-8722" />
        </defs>
        <use
           transform="translate(0,0.684375)"
           xlink:href="#DejaVuSans-49"
           id="use1378"
           x="0"
           y="0"
           width="100%"
           height="100%" />
        <use
           transform="translate(63.623047,0.684375)"
           xlink:href="#DejaVuSans-48"
           id="use1380"
           x="0"
           y="0"
           width="100%"
           height="100%" />
        <use
           transform="matrix(0.7,0,0,0.7,128.20312,38.965625)"
           xlink:href="#DejaVuSans-8722"
           id="use1382"
           x="0"
           y="0"
           width="100%"
           height="100%" />
        <use
           transform="matrix(0.7,0,0,0.7,186.85547,38.965625)"
           xlink:href="#DejaVuSans-49"
           id="use1384"
           x="0"
           y="0"
           width="100%"
           height="100%" />
      </g>
    </g>
  </g>
  <g
     id="xtick_2"
     transform="translate(3.613395,-0.39999989)">
    <g
       id="line2d_2">
      <g
         id="g1392">
        <use
           style="stroke:#000000;stroke-width:0.8"
           x="194.21574"
           xlink:href="#m356d1239e3"
           y="314.40799"
           id="use1390"
           width="100%"
           height="100%" />
      </g>
    </g>
    <g
       id="text_2">
      <!-- $\mathdefault{10^{0}}$ -->
      <g
         transform="matrix(0.1,0,0,-0.1,185.41574,329.00644)"
         id="g1401">
        <use
           transform="translate(0,0.765625)"
           xlink:href="#DejaVuSans-49"
           id="use1395"
           x="0"
           y="0"
           width="100%"
           height="100%" />
        <use
           transform="translate(63.623047,0.765625)"
           xlink:href="#DejaVuSans-48"
           id="use1397"
           x="0"
           y="0"
           width="100%"
           height="100%" />
        <use
           transform="matrix(0.7,0,0,0.7,128.20312,39.046875)"
           xlink:href="#DejaVuSans-48"
           id="use1399"
           x="0"
           y="0"
           width="100%"
           height="100%" />
      </g>
    </g>
  </g>
  <g
     id="xtick_3"
     transform="translate(3.613395,-0.39999989)">
    <g
       id="line2d_3">
      <g
         id="g1407">
        <use
           style="stroke:#000000;stroke-width:0.8"
           x="323.73959"
           xlink:href="#m356d1239e3"
           y="314.40799"
           id="use1405"
           width="100%"
           height="100%" />
      </g>
    </g>
    <g
       id="text_3">
      <!-- $\mathdefault{10^{1}}$ -->
      <g
         transform="matrix(0.1,0,0,-0.1,314.93958,329.00644)"
         id="g1416">
        <use
           transform="translate(0,0.684375)"
           xlink:href="#DejaVuSans-49"
           id="use1410"
           x="0"
           y="0"
           width="100%"
           height="100%" />
        <use
           transform="translate(63.623047,0.684375)"
           xlink:href="#DejaVuSans-48"
           id="use1412"
           x="0"
           y="0"
           width="100%"
           height="100%" />
        <use
           transform="matrix(0.7,0,0,0.7,128.20312,38.965625)"
           xlink:href="#DejaVuSans-49"
           id="use1414"
           x="0"
           y="0"
           width="100%"
           height="100%" />
      </g>
    </g>
  </g>
  <g
     id="xtick_4"
     transform="translate(3.613395,-0.39999989)">
    <g
       id="line2d_4">
      <defs
         id="defs1421">
        <path
           d="M 0,0 V 2"
           id="m3bb1c8b27f"
           style="stroke:#000000;stroke-width:0.6" />
      </defs>
      <g
         id="g1425">
        <use
           style="stroke:#000000;stroke-width:0.6"
           x="52.139736"
           xlink:href="#m3bb1c8b27f"
           y="314.40799"
           id="use1423"
           width="100%"
           height="100%" />
      </g>
    </g>
  </g>
  <g
     id="xtick_5"
     transform="translate(3.613395,-0.39999989)">
    <g
       id="line2d_5">
      <g
         id="g1431">
        <use
           style="stroke:#000000;stroke-width:0.6"
           x="58.765209"
           xlink:href="#m3bb1c8b27f"
           y="314.40799"
           id="use1429"
           width="100%"
           height="100%" />
      </g>
    </g>
  </g>
  <g
     id="xtick_6"
     transform="translate(3.613395,-0.39999989)">
    <g
       id="line2d_6">
      <g
         id="g1437">
        <use
           style="stroke:#000000;stroke-width:0.6"
           x="103.68246"
           xlink:href="#m3bb1c8b27f"
           y="314.40799"
           id="use1435"
           width="100%"
           height="100%" />
      </g>
    </g>
  </g>
  <g
     id="xtick_7"
     transform="translate(3.613395,-0.39999989)">
    <g
       id="line2d_7">
      <g
         id="g1443">
        <use
           style="stroke:#000000;stroke-width:0.6"
           x="126.49047"
           xlink:href="#m3bb1c8b27f"
           y="314.40799"
           id="use1441"
           width="100%"
           height="100%" />
      </g>
    </g>
  </g>
  <g
     id="xtick_8"
     transform="translate(3.613395,-0.39999989)">
    <g
       id="line2d_8">
      <g
         id="g1449">
        <use
           style="stroke:#000000;stroke-width:0.6"
           x="142.67302"
           xlink:href="#m3bb1c8b27f"
           y="314.40799"
           id="use1447"
           width="100%"
           height="100%" />
      </g>
    </g>
  </g>
  <g
     id="xtick_9"
     transform="translate(3.613395,-0.39999989)">
    <g
       id="line2d_9">
      <g
         id="g1455">
        <use
           style="stroke:#000000;stroke-width:0.6"
           x="155.22517"
           xlink:href="#m3bb1c8b27f"
           y="314.40799"
           id="use1453"
           width="100%"
           height="100%" />
      </g>
    </g>
  </g>
  <g
     id="xtick_10"
     transform="translate(3.613395,-0.39999989)">
    <g
       id="line2d_10">
      <g
         id="g1461">
        <use
           style="stroke:#000000;stroke-width:0.6"
           x="165.48103"
           xlink:href="#m3bb1c8b27f"
           y="314.40799"
           id="use1459"
           width="100%"
           height="100%" />
      </g>
    </g>
  </g>
  <g
     id="xtick_11"
     transform="translate(3.613395,-0.39999989)">
    <g
       id="line2d_11">
      <g
         id="g1467">
        <use
           style="stroke:#000000;stroke-width:0.6"
           x="174.15224"
           xlink:href="#m3bb1c8b27f"
           y="314.40799"
           id="use1465"
           width="100%"
           height="100%" />
      </g>
    </g>
  </g>
  <g
     id="xtick_12"
     transform="translate(3.613395,-0.39999989)">
    <g
       id="line2d_12">
      <g
         id="g1473">
        <use
           style="stroke:#000000;stroke-width:0.6"
           x="181.66357"
           xlink:href="#m3bb1c8b27f"
           y="314.40799"
           id="use1471"
           width="100%"
           height="100%" />
      </g>
    </g>
  </g>
  <g
     id="xtick_13"
     transform="translate(3.613395,-0.39999989)">
    <g
       id="line2d_13">
      <g
         id="g1479">
        <use
           style="stroke:#000000;stroke-width:0.6"
           x="188.28905"
           xlink:href="#m3bb1c8b27f"
           y="314.40799"
           id="use1477"
           width="100%"
           height="100%" />
      </g>
    </g>
  </g>
  <g
     id="xtick_14"
     transform="translate(3.613395,-0.39999989)">
    <g
       id="line2d_14">
      <g
         id="g1485">
        <use
           style="stroke:#000000;stroke-width:0.6"
           x="233.2063"
           xlink:href="#m3bb1c8b27f"
           y="314.40799"
           id="use1483"
           width="100%"
           height="100%" />
      </g>
    </g>
  </g>
  <g
     id="xtick_15"
     transform="translate(3.613395,-0.39999989)">
    <g
       id="line2d_15">
      <g
         id="g1491">
        <use
           style="stroke:#000000;stroke-width:0.6"
           x="256.01431"
           xlink:href="#m3bb1c8b27f"
           y="314.40799"
           id="use1489"
           width="100%"
           height="100%" />
      </g>
    </g>
  </g>
  <g
     id="xtick_16"
     transform="translate(3.613395,-0.39999989)">
    <g
       id="line2d_16">
      <g
         id="g1497">
        <use
           style="stroke:#000000;stroke-width:0.6"
           x="272.19687"
           xlink:href="#m3bb1c8b27f"
           y="314.40799"
           id="use1495"
           width="100%"
           height="100%" />
      </g>
    </g>
  </g>
  <g
     id="xtick_17"
     transform="translate(3.613395,-0.39999989)">
    <g
       id="line2d_17">
      <g
         id="g1503">
        <use
           style="stroke:#000000;stroke-width:0.6"
           x="284.74902"
           xlink:href="#m3bb1c8b27f"
           y="314.40799"
           id="use1501"
           width="100%"
           height="100%" />
      </g>
    </g>
  </g>
  <g
     id="xtick_18"
     transform="translate(3.613395,-0.39999989)">
    <g
       id="line2d_18">
      <g
         id="g1509">
        <use
           style="stroke:#000000;stroke-width:0.6"
           x="295.00488"
           xlink:href="#m3bb1c8b27f"
           y="314.40799"
           id="use1507"
           width="100%"
           height="100%" />
      </g>
    </g>
  </g>
  <g
     id="xtick_19"
     transform="translate(3.613395,-0.39999989)">
    <g
       id="line2d_19">
      <g
         id="g1515">
        <use
           style="stroke:#000000;stroke-width:0.6"
           x="303.67609"
           xlink:href="#m3bb1c8b27f"
           y="314.40799"
           id="use1513"
           width="100%"
           height="100%" />
      </g>
    </g>
  </g>
  <g
     id="xtick_20"
     transform="translate(3.613395,-0.39999989)">
    <g
       id="line2d_20">
      <g
         id="g1521">
        <use
           style="stroke:#000000;stroke-width:0.6"
           x="311.18741"
           xlink:href="#m3bb1c8b27f"
           y="314.40799"
           id="use1519"
           width="100%"
           height="100%" />
      </g>
    </g>
  </g>
  <g
     id="xtick_21"
     transform="translate(3.613395,-0.39999989)">
    <g
       id="line2d_21">
      <g
         id="g1527">
        <use
           style="stroke:#000000;stroke-width:0.6"
           x="317.8129"
           xlink:href="#m3bb1c8b27f"
           y="314.40799"
           id="use1525"
           width="100%"
           height="100%" />
      </g>
    </g>
  </g>
  <g
     id="xtick_22"
     transform="translate(3.613395,-0.39999989)">
    <g
       id="line2d_22">
      <g
         id="g1533">
        <use
           style="stroke:#000000;stroke-width:0.6"
           x="362.73013"
           xlink:href="#m3bb1c8b27f"
           y="314.40799"
           id="use1531"
           width="100%"
           height="100%" />
      </g>
    </g>
  </g>
  <g
     id="xtick_23"
     transform="translate(3.613395,-0.39999989)">
    <g
       id="line2d_23">
      <g
         id="g1539">
        <use
           style="stroke:#000000;stroke-width:0.6"
           x="385.53815"
           xlink:href="#m3bb1c8b27f"
           y="314.40799"
           id="use1537"
           width="100%"
           height="100%" />
      </g>
    </g>
  </g>
  <g
     id="xtick_24"
     transform="translate(3.613395,-0.39999989)">
    <g
       id="line2d_24">
      <g
         id="g1545">
        <use
           style="stroke:#000000;stroke-width:0.6"
           x="401.7207"
           xlink:href="#m3bb1c8b27f"
           y="314.40799"
           id="use1543"
           width="100%"
           height="100%" />
      </g>
    </g>
  </g>
  <g
     id="xtick_25"
     transform="translate(3.613395,-0.39999989)">
    <g
       id="line2d_25">
      <g
         id="g1551">
        <use
           style="stroke:#000000;stroke-width:0.6"
           x="414.27286"
           xlink:href="#m3bb1c8b27f"
           y="314.40799"
           id="use1549"
           width="100%"
           height="100%" />
      </g>
    </g>
  </g>
  <g
     id="xtick_26"
     transform="translate(3.613395,-0.39999989)">
    <g
       id="line2d_26">
      <g
         id="g1557">
        <use
           style="stroke:#000000;stroke-width:0.6"
           x="424.52872"
           xlink:href="#m3bb1c8b27f"
           y="314.40799"
           id="use1555"
           width="100%"
           height="100%" />
      </g>
    </g>
  </g>
  <g
     id="xtick_27"
     transform="translate(3.613395,-0.39999989)">
    <g
       id="line2d_27">
      <g
         id="g1563">
        <use
           style="stroke:#000000;stroke-width:0.6"
           x="433.19992"
           xlink:href="#m3bb1c8b27f"
           y="314.40799"
           id="use1561"
           width="100%"
           height="100%" />
      </g>
    </g>
  </g>
  <g
     id="xtick_28"
     transform="translate(3.613395,-0.39999989)">
    <g
       id="line2d_28">
      <g
         id="g1569">
        <use
           style="stroke:#000000;stroke-width:0.6"
           x="440.71127"
           xlink:href="#m3bb1c8b27f"
           y="314.40799"
           id="use1567"
           width="100%"
           height="100%" />
      </g>
    </g>
  </g>
  <g
     id="xtick_29"
     transform="translate(3.613395,-0.39999989)">
    <g
       id="line2d_29">
      <g
         id="g1575">
        <use
           style="stroke:#000000;stroke-width:0.6"
           x="447.33673"
           xlink:href="#m3bb1c8b27f"
           y="314.40799"
           id="use1573"
           width="100%"
           height="100%" />
      </g>
    </g>
  </g>
  <path
     clip-path="url(#p3f6f3298b7)"
     d="m 64.691894,122.41065 38.990566,-47.122141 22.80801,-12.378727 16.18255,10.747622 12.55215,11.153912 10.25586,8.403715 8.67121,5.051887 7.51134,6.322332 6.62547,7.68242 5.92669,4.5143 5.36134,3.9073 4.89452,3.39562 4.50252,2.49018 4.16868,4.31468 3.88095,2.82966 3.63039,-0.18351 3.41023,2.09929 3.21524,2.66043 3.04136,1.6141 2.88533,3.65917 2.74452,0.2017 2.61682,3.14361 2.50048,-1.25447 4.69034,2.31013 2.20622,3.22777 2.12295,3.35119 2.04573,-2.74279 1.97394,1.64036 1.90701,1.80057 1.84448,2.03249 1.78591,0.31668 1.73095,1.43693 1.67928,0.28388 1.63059,0.54147 1.58465,1.43408 1.54124,0.32867 1.50013,1.09888 1.46116,-0.58397 1.42416,2.49117 1.389,1.52731 1.35552,-0.9076 1.32363,0.88372 1.29319,2.4259 1.26413,-1.331 1.23635,2.95902 1.20975,-1.57895 2.34416,2.0367 1.13643,1.27427 1.11393,0.58029 1.09229,0.30593 1.07149,0.82223 1.05146,1.95151 1.03217,-0.82787 1.01356,0.54529 0.99563,0.0967 0.97831,2.41678 0.96159,-0.76322 0.94543,1.24253 0.9298,0.2497 0.91467,-0.0452 0.90005,2.16389 0.88586,-1.40535 0.87214,1.43402 0.85882,-0.042 0.8459,0.88221 1.65457,0.242 0.80939,1.64332 0.79791,0.49695 0.78675,-1.6334 0.77589,2.18289 0.76534,-0.13457 0.75506,0.98873 0.74507,-0.48408 0.73532,-0.26286 0.72584,1.98894 0.71659,-0.28478 0.70757,0.61879 0.69879,-0.27937 0.69021,1.21346 1.35552,0.52053 0.66571,0.076 1.95111,2.26835 0.63562,-0.77034 0.62851,0.62525 0.62157,0.45423 0.61478,0.1771 0.60813,0.35748 0.60163,1.17833 0.59526,-0.51265 0.58902,0.44888 0.58292,0.8131 0.57695,-0.87755 0.57108,1.83989 0.56535,-0.80288 0.55972,2.0657 0.55421,-1.0532 0.5488,0.32084 0.54349,1.36549 0.5383,-0.037 0.53319,0.38556 0.52819,-0.20558 1.04172,1.00742 0.51372,0.17493 0.50907,1.03784 0.5045,-0.46393 0.50001,0.69941 0.49561,0.11815 0.49129,-0.0899 0.48703,0.63597 0.48284,0.19735 0.47874,-0.36554 0.4747,0.14228 0.47073,0.46 0.46682,0.14096 0.46298,0.48499 0.45919,-0.35009 0.45549,1.30845 0.45182,0.51632 0.44822,0.27307 0.44468,0.12582 0.44119,0.92632 0.43775,-0.22021 0.43438,0.793 0.85882,-0.55695 0.42454,0.62993 0.42136,0.19631 0.41823,0.43655 0.41514,-0.37798 0.4121,1.06163 0.40911,0.51138 0.40615,-0.60769 0.8036,1.05418 0.79229,0.6333 0.392,-0.51365 0.38928,0.46047 0.38661,0.0837 0.38397,0.79876 0.38137,-0.0936 0.3788,0.37377 0.37627,0.58341 0.37376,-0.21994 0.3713,0.90801 0.36886,-0.95611 0.36646,1.04225 0.36409,0.62 0.36175,-0.55343 0.71659,0.54461 0.3549,0.81972 0.35267,0.22607 0.35048,-0.54151 0.34831,1.14535 0.34616,-0.43542 0.34405,0.80721 0.34196,-0.41862 0.67773,0.74914 0.33583,0.0545 0.33384,0.25821 0.33187,-0.0651 0.65792,0.9879 0.3261,-0.38204 0.32421,0.55712 0.64288,0.27282 0.31871,0.69391 0.31691,-0.40027 0.31514,0.6666 0.31337,0.30786 0.31165,-0.12981 0.30992,0.13374 0.91967,1.08733 0.30324,-0.085 0.30162,0.0372 0.89527,0.93985 0.29528,-0.0347 0.29374,0.24574 0.29222,0.65374 0.29071,-0.22246 0.86321,0.39202 0.28482,0.73619 0.28338,-0.27277 0.56252,1.01561 0.27916,-0.30984 0.27779,0.62667 0.27642,-0.16798 0.27507,0.79776 0.27373,-0.49682 0.2724,0.69558 0.2711,-0.38753 0.26979,0.20813 0.2685,1.05832 0.53319,-0.15004 0.26472,0.59388 0.26347,-0.3964 0.26225,0.85039 0.26103,-0.39792 0.25982,0.45464 0.25862,0.77111 0.25745,-0.91215 0.25627,0.76534 0.25511,-0.26686 0.25396,0.50866 0.25281,0.15955 0.25169,0.33236 0.25056,-0.15761 0.24946,0.0827 0.49561,0.81652 0.24617,-0.0163 0.48915,0.25814 0.24299,0.35351 0.24194,-0.1402 0.24091,0.58614 0.23987,0.023 0.47672,0.4585 0.23684,-0.29599 0.47073,0.86761 0.23389,-0.0639 0.23293,0.072 0.23197,0.44017 0.23101,-0.15282 0.23007,0.47345 0.22913,-0.31841 0.2282,0.81583 0.22728,-0.0995 0.22636,0.27799 0.22546,-0.14098 0.22456,0.48188 0.22366,0.0614 0.22278,0.29186 0.2219,-0.13357 0.44119,0.38051 0.43776,0.5108 0.2176,-0.0439 0.21677,0.10234 0.21594,0.39316 0.21511,-0.0854 0.64044,0.89368 0.21187,0.48449 0.21108,-0.47276 0.83647,1.01961 0.20718,-0.11859 0.20643,0.70302 0.20567,-0.34985 0.40911,0.46683 0.20344,-0.23033 0.40469,0.95529 0.20126,-0.62003 0.20054,0.67345 0.19982,-0.0352 0.19912,0.70569 0.19842,-0.38857 0.19772,0.37697 0.19703,0.70689 0.19634,-0.53395 0.19566,0.41229 0.19498,-0.055 0.38794,0.79677 0.19298,-0.32859 0.19231,0.11887 0.19165,0.55432 0.38137,0.37741 0.3788,-0.25262 0.37627,0.94071 0.18719,-0.70366 0.55787,1.31617 0.18474,-0.75029 0.36765,1.35474 0.36528,-0.51059 0.54349,1.02289 0.18001,-0.26469 0.17943,0.51703 0.17886,-0.0236 0.17829,0.2372 0.17773,0.44218 0.17717,-0.80893 0.17661,1.08978 0.17607,-0.25496 0.17551,0.51446 0.17496,-0.17791 0.34831,0.61118 0.51845,0.25164 0.17176,0.25899 0.17124,0.58857 0.17072,-0.70017 0.33989,0.71457 0.16917,0.45656 0.33684,-0.13049 0.16767,0.45612 0.16716,0.03 0.66374,1.11913 0.16472,-0.23247 0.16424,0.48742 0.16376,-0.29287 0.3261,0.98606 0.16234,-0.1663 0.16187,0.26237 0.16141,-0.27278 0.32144,0.83295 0.16004,-0.34662 0.15957,0.61113 0.15913,-0.11911 0.15868,0.43287 0.15823,-0.1234 0.31514,0.68906 0.15691,-0.18803 0.93236,1.17581 0.1539,-0.20527 0.30655,0.56985 0.15265,-0.15755 0.15224,0.56868 0.15183,-0.15523 0.15141,0.5704 0.15101,-0.37221 0.45062,0.91656 0.14941,-0.20143 0.29762,0.50608 0.59058,0.57258 0.14667,0.43932 0.1463,-0.0699 0.14592,-0.27437 0.4355,1.08436 0.14442,-0.2578 0.43105,0.74464 0.28554,0.14959 0.14223,0.62613 0.14187,-0.37251 0.28267,0.47689 0.1408,-0.13437 0.14046,0.60293 0.1401,-0.30761 0.13975,0.37867 0.13941,0.003 0.27779,0.71931 0.13838,-0.56737 0.13804,0.7976 0.1377,-0.14029 0.2744,0.59398 0.1367,-0.30036 0.13637,0.8208 0.13604,-0.1253 0.27109,0.32828 0.13505,-0.36757 0.13474,0.94755 0.13441,-0.19859 0.13409,0.11847 0.13378,0.35405 0.13345,-0.0716 0.13314,0.46966 0.13283,-0.51894 0.26471,1.00584 0.13189,-0.20652 0.13158,0.57829 0.13128,-0.2571 0.26163,0.80238 0.13037,-0.19158 1.03216,1.47615 0.1277,-0.42578 0.38137,1.20319 0.12655,-0.37848 0.12627,0.46362 0.12598,0.0273 0.50113,0.7391 0.12459,0.22184 0.12431,-0.0546 0.49452,0.83792 0.12296,-0.16488 0.2451,0.385 0.12215,0.8096 0.12189,-0.7396 0.24299,0.93811 0.1211,-0.12624 0.12084,0.35504 0.12058,-0.15203 0.24039,0.88024 0.11982,-0.39214 0.35791,0.83655 0.1188,-0.0462 0.11855,0.11653 0.1183,0.35202 0.11805,-0.10567 0.1178,0.44198 0.11756,-0.0504 0.11731,0.0947 0.11707,0.34224 0.11683,-0.0521 0.11658,0.52532 0.11634,-0.31069 0.23197,0.75416 0.11562,-0.0809 0.23054,0.54695 0.11492,0.0655 0.57108,1.08033 0.11353,-0.36595 0.22636,0.75529 0.33785,0.36396 0.22411,0.66635 0.11172,-0.16121 0.33384,0.8298 0.11084,-0.47305 0.22103,0.89363 0.11019,-0.10063 0.10997,0.61191 0.10976,-0.68091 0.21888,0.99537 0.10912,-0.10262 0.10891,0.52606 0.10869,-0.26901 0.21677,0.63454 0.10808,-0.15447 0.32297,0.97291 0.21429,-0.0117 0.10684,0.61015 0.10664,-0.39732 0.10644,0.59646 0.10623,-0.21684 0.31751,0.95904 0.10544,-0.18718 0.10524,0.19551 0.20989,0.69385 0.10466,-0.0555 0.3128,0.64121 0.10388,0.005 0.31049,0.77294 0.20605,0.053 0.30767,0.97163 0.20418,-0.22929 0.10181,0.6544 0.10163,-0.0216 0.40469,0.95813 0.10072,-0.36808 0.30108,0.92969 0.19983,-0.0215 0.29841,0.99151 0.0991,-0.15552 0.68901,1.58104 0.0977,-0.35101 0.29222,1.11833 0.0971,0.0447 0.0969,-0.19422 0.1933,0.72096 0.48038,0.90877 0.0956,-0.0317 0.28579,0.90227 0.0949,-0.0758 0.7538,1.66952 0.0935,-0.001 0.18658,0.50812 0.18595,0.3197 0.0928,0.17277 0.18504,0.51827 0.0923,-0.0187 0.27597,0.8996 0.0917,-0.17013 0.18293,0.69775 0.0912,-0.13757 0.0911,0.47892 0.0909,-0.0699 0.18146,0.83232 0.0905,-0.045 0.18058,0.31046 0.18001,0.49934 0.0898,-0.0657 0.17915,0.64515 0.17858,0.3449 0.44397,0.79581 0.26472,0.89365 0.088,-0.23745 0.26306,0.73979 0.0874,-0.0125 0.26143,0.87763 0.0869,-0.0618 0.34617,0.97415 0.0862,-0.22471 0.17202,0.9575 0.1715,0.0242 0.42647,0.95424 0.0849,-0.18311 0.0848,0.55889 0.0847,-0.10374 0.2532,0.63013 0.16816,0.15567 0.0839,0.46773 0.0838,-0.12001 0.25056,0.15317 0.16643,0.58021 0.083,-0.19097 0.0829,0.44894 0.16544,-0.61096 v 0"
     style="fill:none;stroke:#000000;stroke-width:1.5;stroke-linecap:square"
     id="path1698"
     transform="translate(3.613395,-0.39999989)" />
  <path
     clip-path="url(#p3f6f3298b7)"
     d="M 64.691894,24.600364 431.65199,229.05833 v 0"
     style="fill:none;stroke:#000000;stroke-width:1.5;stroke-linecap:square;stroke-miterlimit:4;stroke-dasharray:6, 6;stroke-dashoffset:0"
     id="path1701"
     transform="translate(3.613395,-6.3999999)" />
  <path
     clip-path="url(#p3f6f3298b7)"
     d="m 64.691894,179.93541 38.990566,-102.374288 38.99056,-9.121554 38.99056,33.065202 38.99056,30.55005 38.99056,22.96497 38.99056,22.77905 38.99057,22.91278 38.99056,26.23958 38.99056,36.56229"
     style="fill:none;stroke:#2ca02c;stroke-width:1.5;stroke-linecap:square"
     id="path1704"
     transform="translate(3.613395,-0.39999989)" />
  <g
     clip-path="url(#p3f6f3298b7)"
     id="g1729"
     transform="translate(3.613395,-0.39999989)">
    <use
       style="fill:#2ca02c;stroke:#2ca02c"
       x="64.691895"
       xlink:href="#mc0ebe1401c"
       y="179.93541"
       id="use1709"
       width="100%"
       height="100%" />
    <use
       style="fill:#2ca02c;stroke:#2ca02c"
       x="103.68246"
       xlink:href="#mc0ebe1401c"
       y="77.561119"
       id="use1711"
       width="100%"
       height="100%" />
    <use
       style="fill:#2ca02c;stroke:#2ca02c"
       x="142.67302"
       xlink:href="#mc0ebe1401c"
       y="68.439568"
       id="use1713"
       width="100%"
       height="100%" />
    <use
       style="fill:#2ca02c;stroke:#2ca02c"
       x="181.66357"
       xlink:href="#mc0ebe1401c"
       y="101.50478"
       id="use1715"
       width="100%"
       height="100%" />
    <use
       style="fill:#2ca02c;stroke:#2ca02c"
       x="220.65414"
       xlink:href="#mc0ebe1401c"
       y="132.05482"
       id="use1717"
       width="100%"
       height="100%" />
    <use
       style="fill:#2ca02c;stroke:#2ca02c"
       x="259.64471"
       xlink:href="#mc0ebe1401c"
       y="155.01979"
       id="use1719"
       width="100%"
       height="100%" />
    <use
       style="fill:#2ca02c;stroke:#2ca02c"
       x="298.63525"
       xlink:href="#mc0ebe1401c"
       y="177.79884"
       id="use1721"
       width="100%"
       height="100%" />
    <use
       style="fill:#2ca02c;stroke:#2ca02c"
       x="337.62582"
       xlink:href="#mc0ebe1401c"
       y="200.71162"
       id="use1723"
       width="100%"
       height="100%" />
    <use
       style="fill:#2ca02c;stroke:#2ca02c"
       x="376.61639"
       xlink:href="#mc0ebe1401c"
       y="226.9512"
       id="use1725"
       width="100%"
       height="100%" />
    <use
       style="fill:#2ca02c;stroke:#2ca02c"
       x="415.60696"
       xlink:href="#mc0ebe1401c"
       y="263.51349"
       id="use1727"
       width="100%"
       height="100%" />
  </g>
  <path
     d="M 49.957284,314.008 V 10.4"
     style="fill:none;stroke:#000000;stroke-width:0.8;stroke-linecap:square;stroke-linejoin:miter"
     id="path1732" />
  <path
     d="M 453.61339,314.008 V 10.4"
     style="fill:none;stroke:#000000;stroke-width:0.8;stroke-linecap:square;stroke-linejoin:miter"
     id="path1735" />
  <path
     d="M 49.957284,314.008 H 453.61339"
     style="fill:none;stroke:#000000;stroke-width:0.8;stroke-linecap:square;stroke-linejoin:miter"
     id="path1738" />
  <path
     d="M 49.957284,10.4 H 453.61339"
     style="fill:none;stroke:#000000;stroke-width:0.8;stroke-linecap:square;stroke-linejoin:miter"
     id="path1741" />
  <g
     ns3:version="1.1.0"
     ns3:texconverter="pdflatex"
     ns3:pdfconverter="inkscape"
     ns3:text="$k^{-3}$"
     ns3:preamble="/home/ogurcan/talks/berlin19/default_packages.tex"
     ns3:scale="2.0"
     ns3:alignment="middle center"
     transform="matrix(2,0,0,2,295.72266,119.39242)"
     ns3:jacobian_sqrt="2.0"
     id="g2731">
    <defs
       id="id-8640e05c-28c1-4860-83ec-04ded3440f78">
      <g
         id="id-99d7ae2d-fd20-4b5c-97df-5682747f8822">
        <symbol
           overflow="visible"
           id="id-d1877623-7c38-4cb5-beb9-18c3926969b1">
          <path
             style="stroke:none"
             d=""
             id="id-f4c59545-802e-4185-b4bd-160520fee9b2" />
        </symbol>
        <symbol
           overflow="visible"
           id="id-73c88cb5-7452-4561-9367-0c2a6a43626b">
          <path
             style="stroke:none"
             d="m 2.859375,-6.8125 c 0,0 0,-0.109375 -0.125,-0.109375 -0.234375,0 -0.953125,0.078125 -1.21875,0.109375 -0.078125,0 -0.1875,0.015625 -0.1875,0.1875 0,0.125 0.09375,0.125 0.234375,0.125 0.484375,0 0.5,0.0625 0.5,0.171875 L 2.03125,-6.125 0.59375,-0.390625 c -0.046875,0.140625 -0.046875,0.15625 -0.046875,0.21875 0,0.234375 0.203125,0.28125 0.296875,0.28125 0.125,0 0.265625,-0.09375 0.328125,-0.203125 0.046875,-0.09375 0.5,-1.9375 0.5625,-2.1875 0.34375,0.03125 1.15625,0.1875 1.15625,0.84375 0,0.078125 0,0.109375 -0.03125,0.21875 -0.015625,0.109375 -0.03125,0.234375 -0.03125,0.34375 0,0.578125 0.390625,0.984375 0.90625,0.984375 0.296875,0 0.578125,-0.15625 0.796875,-0.53125 0.25,-0.4375 0.359375,-0.984375 0.359375,-1 0,-0.109375 -0.09375,-0.109375 -0.125,-0.109375 -0.09375,0 -0.109375,0.046875 -0.140625,0.1875 -0.203125,0.71875 -0.421875,1.234375 -0.859375,1.234375 -0.203125,0 -0.328125,-0.109375 -0.328125,-0.46875 0,-0.171875 0.046875,-0.40625 0.078125,-0.5625 C 3.5625,-1.3125 3.5625,-1.34375 3.5625,-1.453125 3.5625,-2.09375 2.9375,-2.375 2.078125,-2.5 2.390625,-2.671875 2.71875,-2.984375 2.9375,-3.234375 3.421875,-3.765625 3.875,-4.1875 4.359375,-4.1875 c 0.0625,0 0.078125,0 0.09375,0.015625 0.125,0.015625 0.125,0.015625 0.21875,0.078125 0.015625,0 0.015625,0.015625 0.03125,0.03125 -0.46875,0.03125 -0.5625,0.421875 -0.5625,0.546875 0,0.15625 0.109375,0.34375 0.375,0.34375 0.265625,0 0.546875,-0.21875 0.546875,-0.609375 0,-0.296875 -0.234375,-0.625 -0.671875,-0.625 -0.28125,0 -0.734375,0.078125 -1.453125,0.875 -0.34375,0.375 -0.734375,0.78125 -1.109375,0.921875 z m 0,0"
             id="id-3144fb8c-467c-40ce-8607-54a0bb0bf314" />
        </symbol>
        <symbol
           overflow="visible"
           id="id-c8d67916-2637-4ddc-af66-0d1d38af3333">
          <path
             style="stroke:none"
             d=""
             id="id-96a1e229-4fda-476f-a524-aa4720f1df6f" />
        </symbol>
        <symbol
           overflow="visible"
           id="id-cab64a62-0f7d-4df3-894a-146ed5a59ca2">
          <path
             style="stroke:none"
             d="m 5.1875,-1.578125 c 0.109375,0 0.28125,0 0.28125,-0.15625 0,-0.1875 -0.171875,-0.1875 -0.28125,-0.1875 H 1.03125 c -0.109375,0 -0.28125,0 -0.28125,0.171875 0,0.171875 0.15625,0.171875 0.28125,0.171875 z m 0,0"
             id="id-37fc23cb-5fe2-4c91-aede-f4c03ca79cdc" />
        </symbol>
        <symbol
           overflow="visible"
           id="id-bdc8f36d-fb23-46a7-bf9e-b0ad3fdec572">
          <path
             style="stroke:none"
             d=""
             id="id-4408ab37-f050-4bcf-b2bd-5cea42293291" />
        </symbol>
        <symbol
           overflow="visible"
           id="id-7590a5f8-b87b-4b47-a471-ceff71f775cb">
          <path
             style="stroke:none"
             d="m 1.90625,-2.328125 c 0.546875,0 0.9375,0.375 0.9375,1.125 0,0.859375 -0.515625,1.125 -0.90625,1.125 -0.28125,0 -0.90625,-0.078125 -1.1875,-0.5 0.328125,0 0.40625,-0.234375 0.40625,-0.390625 0,-0.21875 -0.171875,-0.375 -0.390625,-0.375 -0.1875,0 -0.390625,0.125 -0.390625,0.40625 0,0.65625 0.71875,1.078125 1.5625,1.078125 0.96875,0 1.640625,-0.65625 1.640625,-1.34375 0,-0.546875 -0.4375,-1.09375 -1.203125,-1.25 0.71875,-0.265625 0.984375,-0.78125 0.984375,-1.21875 0,-0.546875 -0.625,-0.953125 -1.40625,-0.953125 -0.765625,0 -1.359375,0.375 -1.359375,0.9375 0,0.234375 0.15625,0.359375 0.359375,0.359375 0.21875,0 0.359375,-0.15625 0.359375,-0.34375 0,-0.203125 -0.140625,-0.359375 -0.359375,-0.375 0.25,-0.296875 0.71875,-0.375 0.984375,-0.375 0.3125,0 0.75,0.15625 0.75,0.75 0,0.296875 -0.09375,0.625 -0.28125,0.828125 -0.21875,0.265625 -0.421875,0.28125 -0.765625,0.3125 -0.171875,0.015625 -0.1875,0.015625 -0.21875,0.015625 -0.015625,0 -0.078125,0.015625 -0.078125,0.09375 0,0.09375 0.0625,0.09375 0.1875,0.09375 z m 0,0"
             id="id-6561786c-35b4-4f6c-aa45-2fb1c70f4f6c" />
        </symbol>
      </g>
    </defs>
    <g
       id="id-97f644da-57af-4fe9-a854-a1eca1805ab3"
       transform="translate(-149.259,-126.524)">
      <g
         style="fill:#000000;fill-opacity:1"
         id="id-50417674-bb19-46d3-ac83-b9a88805a911">
        <g
           transform="translate(148.712,134.765)"
           id="g2719">
          <path
             style="stroke:none"
             d="m 2.859375,-6.8125 c 0,0 0,-0.109375 -0.125,-0.109375 -0.234375,0 -0.953125,0.078125 -1.21875,0.109375 -0.078125,0 -0.1875,0.015625 -0.1875,0.1875 0,0.125 0.09375,0.125 0.234375,0.125 0.484375,0 0.5,0.0625 0.5,0.171875 L 2.03125,-6.125 0.59375,-0.390625 c -0.046875,0.140625 -0.046875,0.15625 -0.046875,0.21875 0,0.234375 0.203125,0.28125 0.296875,0.28125 0.125,0 0.265625,-0.09375 0.328125,-0.203125 0.046875,-0.09375 0.5,-1.9375 0.5625,-2.1875 0.34375,0.03125 1.15625,0.1875 1.15625,0.84375 0,0.078125 0,0.109375 -0.03125,0.21875 -0.015625,0.109375 -0.03125,0.234375 -0.03125,0.34375 0,0.578125 0.390625,0.984375 0.90625,0.984375 0.296875,0 0.578125,-0.15625 0.796875,-0.53125 0.25,-0.4375 0.359375,-0.984375 0.359375,-1 0,-0.109375 -0.09375,-0.109375 -0.125,-0.109375 -0.09375,0 -0.109375,0.046875 -0.140625,0.1875 -0.203125,0.71875 -0.421875,1.234375 -0.859375,1.234375 -0.203125,0 -0.328125,-0.109375 -0.328125,-0.46875 0,-0.171875 0.046875,-0.40625 0.078125,-0.5625 C 3.5625,-1.3125 3.5625,-1.34375 3.5625,-1.453125 3.5625,-2.09375 2.9375,-2.375 2.078125,-2.5 2.390625,-2.671875 2.71875,-2.984375 2.9375,-3.234375 3.421875,-3.765625 3.875,-4.1875 4.359375,-4.1875 c 0.0625,0 0.078125,0 0.09375,0.015625 0.125,0.015625 0.125,0.015625 0.21875,0.078125 0.015625,0 0.015625,0.015625 0.03125,0.03125 -0.46875,0.03125 -0.5625,0.421875 -0.5625,0.546875 0,0.15625 0.109375,0.34375 0.375,0.34375 0.265625,0 0.546875,-0.21875 0.546875,-0.609375 0,-0.296875 -0.234375,-0.625 -0.671875,-0.625 -0.28125,0 -0.734375,0.078125 -1.453125,0.875 -0.34375,0.375 -0.734375,0.78125 -1.109375,0.921875 z m 0,0"
             id="id-4ee89ce9-44c0-4ead-8f9f-f02376fbade3" />
        </g>
      </g>
      <g
         style="fill:#000000;fill-opacity:1"
         id="id-51bf5bf5-94e8-4f19-9afe-ca55e6c0f34b">
        <g
           transform="translate(154.213,131.149)"
           id="g2723">
          <path
             style="stroke:none"
             d="m 5.1875,-1.578125 c 0.109375,0 0.28125,0 0.28125,-0.15625 0,-0.1875 -0.171875,-0.1875 -0.28125,-0.1875 H 1.03125 c -0.109375,0 -0.28125,0 -0.28125,0.171875 0,0.171875 0.15625,0.171875 0.28125,0.171875 z m 0,0"
             id="id-26cffd31-9585-4a15-83ed-deee8c85cf4e" />
        </g>
      </g>
      <g
         style="fill:#000000;fill-opacity:1"
         id="id-90b5a7f6-5f37-40c1-9f84-0603e775b50f">
        <g
           transform="translate(160.439,131.149)"
           id="g2727">
          <path
             style="stroke:none"
             d="m 1.90625,-2.328125 c 0.546875,0 0.9375,0.375 0.9375,1.125 0,0.859375 -0.515625,1.125 -0.90625,1.125 -0.28125,0 -0.90625,-0.078125 -1.1875,-0.5 0.328125,0 0.40625,-0.234375 0.40625,-0.390625 0,-0.21875 -0.171875,-0.375 -0.390625,-0.375 -0.1875,0 -0.390625,0.125 -0.390625,0.40625 0,0.65625 0.71875,1.078125 1.5625,1.078125 0.96875,0 1.640625,-0.65625 1.640625,-1.34375 0,-0.546875 -0.4375,-1.09375 -1.203125,-1.25 0.71875,-0.265625 0.984375,-0.78125 0.984375,-1.21875 0,-0.546875 -0.625,-0.953125 -1.40625,-0.953125 -0.765625,0 -1.359375,0.375 -1.359375,0.9375 0,0.234375 0.15625,0.359375 0.359375,0.359375 0.21875,0 0.359375,-0.15625 0.359375,-0.34375 0,-0.203125 -0.140625,-0.359375 -0.359375,-0.375 0.25,-0.296875 0.71875,-0.375 0.984375,-0.375 0.3125,0 0.75,0.15625 0.75,0.75 0,0.296875 -0.09375,0.625 -0.28125,0.828125 -0.21875,0.265625 -0.421875,0.28125 -0.765625,0.3125 -0.171875,0.015625 -0.1875,0.015625 -0.21875,0.015625 -0.015625,0 -0.078125,0.015625 -0.078125,0.09375 0,0.09375 0.0625,0.09375 0.1875,0.09375 z m 0,0"
             id="id-42888f93-3425-4e90-94bb-67e469082694" />
        </g>
      </g>
    </g>
  </g>
  <g
     ns3:version="1.1.0"
     ns3:texconverter="pdflatex"
     ns3:pdfconverter="inkscape"
     ns3:text="$E(k)$"
     ns3:preamble="/home/ogurcan/talks/berlin19/default_packages.tex"
     ns3:scale="2.0"
     ns3:alignment="middle center"
     transform="matrix(2,0,0,2,0,15.806065)"
     ns3:jacobian_sqrt="2.0"
     id="g3052">
    <defs
       id="id-00b4b061-2838-453b-90f3-5faec0194c67">
      <g
         id="id-d3c1d1d4-09ec-4c08-a6a1-463a0feeba1e">
        <symbol
           overflow="visible"
           id="id-edee90a0-b468-4825-a902-0229614e329f">
          <path
             style="stroke:none"
             d=""
             id="id-4c3facb7-8b2b-49a4-b62d-513380350100" />
        </symbol>
        <symbol
           overflow="visible"
           id="id-9b3445a4-8ae4-4e92-9ef8-efe304850645">
          <path
             style="stroke:none"
             d="M 7.0625,-2.328125 C 7.078125,-2.375 7.109375,-2.4375 7.109375,-2.46875 c 0,0 0,-0.109375 -0.125,-0.109375 -0.09375,0 -0.109375,0.0625 -0.125,0.125 C 6.203125,-0.984375 5.84375,-0.3125 4.140625,-0.3125 H 2.6875 c -0.140625,0 -0.171875,0 -0.21875,0 -0.109375,-0.015625 -0.140625,-0.03125 -0.140625,-0.109375 0,-0.03125 0,-0.046875 0.046875,-0.21875 L 3.0625,-3.375 h 0.984375 c 0.84375,0 0.84375,0.21875 0.84375,0.46875 0,0.0625 0,0.1875 -0.0625,0.484375 C 4.8125,-2.375 4.796875,-2.34375 4.796875,-2.3125 c 0,0.046875 0.03125,0.109375 0.125,0.109375 C 5,-2.203125 5.03125,-2.25 5.078125,-2.40625 l 0.5625,-2.328125 c 0,-0.0625 -0.046875,-0.109375 -0.125,-0.109375 -0.078125,0 -0.109375,0.0625 -0.125,0.171875 -0.21875,0.765625 -0.390625,1 -1.3125,1 h -0.9375 l 0.59375,-2.40625 C 3.828125,-6.4375 3.84375,-6.46875 4.28125,-6.46875 H 5.6875 c 1.203125,0 1.515625,0.28125 1.515625,1.109375 0,0.234375 0,0.25 -0.046875,0.53125 0,0.046875 -0.015625,0.125 -0.015625,0.171875 0,0.046875 0.03125,0.125 0.125,0.125 0.109375,0 0.125,-0.0625 0.140625,-0.25 L 7.609375,-6.515625 C 7.640625,-6.78125 7.59375,-6.78125 7.34375,-6.78125 H 2.296875 c -0.1875,0 -0.296875,0 -0.296875,0.203125 0,0.109375 0.09375,0.109375 0.28125,0.109375 0.375,0 0.65625,0 0.65625,0.171875 0,0.046875 0,0.0625 -0.0625,0.25 L 1.5625,-0.78125 c -0.09375,0.390625 -0.109375,0.46875 -0.90625,0.46875 -0.171875,0 -0.28125,0 -0.28125,0.1875 C 0.375,0 0.46875,0 0.65625,0 h 5.171875 c 0.234375,0 0.25,-0.015625 0.3125,-0.171875 z m 0,0"
             id="id-d4cc4501-84a5-4f23-acda-dcc92d9e49e8" />
        </symbol>
        <symbol
           overflow="visible"
           id="id-88ea9a05-7fe0-4711-be3b-9310622cf740">
          <path
             style="stroke:none"
             d="m 2.859375,-6.8125 c 0,0 0,-0.109375 -0.125,-0.109375 -0.234375,0 -0.953125,0.078125 -1.21875,0.109375 -0.078125,0 -0.1875,0.015625 -0.1875,0.1875 0,0.125 0.09375,0.125 0.234375,0.125 0.484375,0 0.5,0.0625 0.5,0.171875 L 2.03125,-6.125 0.59375,-0.390625 c -0.046875,0.140625 -0.046875,0.15625 -0.046875,0.21875 0,0.234375 0.203125,0.28125 0.296875,0.28125 0.125,0 0.265625,-0.09375 0.328125,-0.203125 0.046875,-0.09375 0.5,-1.9375 0.5625,-2.1875 0.34375,0.03125 1.15625,0.1875 1.15625,0.84375 0,0.078125 0,0.109375 -0.03125,0.21875 -0.015625,0.109375 -0.03125,0.234375 -0.03125,0.34375 0,0.578125 0.390625,0.984375 0.90625,0.984375 0.296875,0 0.578125,-0.15625 0.796875,-0.53125 0.25,-0.4375 0.359375,-0.984375 0.359375,-1 0,-0.109375 -0.09375,-0.109375 -0.125,-0.109375 -0.09375,0 -0.109375,0.046875 -0.140625,0.1875 -0.203125,0.71875 -0.421875,1.234375 -0.859375,1.234375 -0.203125,0 -0.328125,-0.109375 -0.328125,-0.46875 0,-0.171875 0.046875,-0.40625 0.078125,-0.5625 C 3.5625,-1.3125 3.5625,-1.34375 3.5625,-1.453125 3.5625,-2.09375 2.9375,-2.375 2.078125,-2.5 2.390625,-2.671875 2.71875,-2.984375 2.9375,-3.234375 3.421875,-3.765625 3.875,-4.1875 4.359375,-4.1875 c 0.0625,0 0.078125,0 0.09375,0.015625 0.125,0.015625 0.125,0.015625 0.21875,0.078125 0.015625,0 0.015625,0.015625 0.03125,0.03125 -0.46875,0.03125 -0.5625,0.421875 -0.5625,0.546875 0,0.15625 0.109375,0.34375 0.375,0.34375 0.265625,0 0.546875,-0.21875 0.546875,-0.609375 0,-0.296875 -0.234375,-0.625 -0.671875,-0.625 -0.28125,0 -0.734375,0.078125 -1.453125,0.875 -0.34375,0.375 -0.734375,0.78125 -1.109375,0.921875 z m 0,0"
             id="id-c942940c-595e-453c-b44c-16160e561c5c" />
        </symbol>
        <symbol
           overflow="visible"
           id="id-dcdbecbd-ba12-4259-843e-d176de3fc9b9">
          <path
             style="stroke:none"
             d=""
             id="id-96b4d249-d0e9-46d4-8e56-be048199017d" />
        </symbol>
        <symbol
           overflow="visible"
           id="id-e71da8eb-6ebf-4c35-8f58-ca43188745bb">
          <path
             style="stroke:none"
             d="m 3.296875,2.390625 c 0,-0.03125 0,-0.046875 -0.171875,-0.21875 C 1.890625,0.921875 1.5625,-0.96875 1.5625,-2.5 c 0,-1.734375 0.375,-3.46875 1.609375,-4.703125 0.125,-0.125 0.125,-0.140625 0.125,-0.171875 0,-0.078125 -0.03125,-0.109375 -0.09375,-0.109375 -0.109375,0 -1,0.6875 -1.59375,1.953125 -0.5,1.09375 -0.625,2.203125 -0.625,3.03125 0,0.78125 0.109375,1.984375 0.65625,3.125 C 2.25,1.84375 3.09375,2.5 3.203125,2.5 c 0.0625,0 0.09375,-0.03125 0.09375,-0.109375 z m 0,0"
             id="id-55506245-6b46-4faa-aab1-9afc0e4764ec" />
        </symbol>
        <symbol
           overflow="visible"
           id="id-f0a18e69-0aba-4055-b590-56dea3c95767">
          <path
             style="stroke:none"
             d="m 2.875,-2.5 c 0,-0.765625 -0.109375,-1.96875 -0.65625,-3.109375 -0.59375,-1.21875 -1.453125,-1.875 -1.546875,-1.875 -0.0625,0 -0.109375,0.046875 -0.109375,0.109375 0,0.03125 0,0.046875 0.1875,0.234375 0.984375,0.984375 1.546875,2.5625 1.546875,4.640625 0,1.71875 -0.359375,3.46875 -1.59375,4.71875 C 0.5625,2.34375 0.5625,2.359375 0.5625,2.390625 0.5625,2.453125 0.609375,2.5 0.671875,2.5 0.765625,2.5 1.671875,1.8125 2.25,0.546875 2.765625,-0.546875 2.875,-1.65625 2.875,-2.5 Z m 0,0"
             id="id-5263e4a8-eed2-4a63-a2ef-394cc7189f1c" />
        </symbol>
      </g>
    </defs>
    <g
       id="id-7c0f841b-2a48-4199-b0b0-9ba0c4447057"
       transform="translate(-149.087,-127.281)">
      <g
         style="fill:#000000;fill-opacity:1"
         id="id-c739de3d-45bf-45cd-b8f7-d66c3b34b191">
        <g
           transform="translate(148.712,134.765)"
           id="g3036">
          <path
             style="stroke:none"
             d="M 7.0625,-2.328125 C 7.078125,-2.375 7.109375,-2.4375 7.109375,-2.46875 c 0,0 0,-0.109375 -0.125,-0.109375 -0.09375,0 -0.109375,0.0625 -0.125,0.125 C 6.203125,-0.984375 5.84375,-0.3125 4.140625,-0.3125 H 2.6875 c -0.140625,0 -0.171875,0 -0.21875,0 -0.109375,-0.015625 -0.140625,-0.03125 -0.140625,-0.109375 0,-0.03125 0,-0.046875 0.046875,-0.21875 L 3.0625,-3.375 h 0.984375 c 0.84375,0 0.84375,0.21875 0.84375,0.46875 0,0.0625 0,0.1875 -0.0625,0.484375 C 4.8125,-2.375 4.796875,-2.34375 4.796875,-2.3125 c 0,0.046875 0.03125,0.109375 0.125,0.109375 C 5,-2.203125 5.03125,-2.25 5.078125,-2.40625 l 0.5625,-2.328125 c 0,-0.0625 -0.046875,-0.109375 -0.125,-0.109375 -0.078125,0 -0.109375,0.0625 -0.125,0.171875 -0.21875,0.765625 -0.390625,1 -1.3125,1 h -0.9375 l 0.59375,-2.40625 C 3.828125,-6.4375 3.84375,-6.46875 4.28125,-6.46875 H 5.6875 c 1.203125,0 1.515625,0.28125 1.515625,1.109375 0,0.234375 0,0.25 -0.046875,0.53125 0,0.046875 -0.015625,0.125 -0.015625,0.171875 0,0.046875 0.03125,0.125 0.125,0.125 0.109375,0 0.125,-0.0625 0.140625,-0.25 L 7.609375,-6.515625 C 7.640625,-6.78125 7.59375,-6.78125 7.34375,-6.78125 H 2.296875 c -0.1875,0 -0.296875,0 -0.296875,0.203125 0,0.109375 0.09375,0.109375 0.28125,0.109375 0.375,0 0.65625,0 0.65625,0.171875 0,0.046875 0,0.0625 -0.0625,0.25 L 1.5625,-0.78125 c -0.09375,0.390625 -0.109375,0.46875 -0.90625,0.46875 -0.171875,0 -0.28125,0 -0.28125,0.1875 C 0.375,0 0.46875,0 0.65625,0 h 5.171875 c 0.234375,0 0.25,-0.015625 0.3125,-0.171875 z m 0,0"
             id="id-ae920ab4-23d6-4a67-84e8-938ce95ae8ed" />
        </g>
      </g>
      <g
         style="fill:#000000;fill-opacity:1"
         id="id-cf6a3aab-fbc5-4620-94b8-bf5d5d80f7da">
        <g
           transform="translate(156.641,134.765)"
           id="g3040">
          <path
             style="stroke:none"
             d="m 3.296875,2.390625 c 0,-0.03125 0,-0.046875 -0.171875,-0.21875 C 1.890625,0.921875 1.5625,-0.96875 1.5625,-2.5 c 0,-1.734375 0.375,-3.46875 1.609375,-4.703125 0.125,-0.125 0.125,-0.140625 0.125,-0.171875 0,-0.078125 -0.03125,-0.109375 -0.09375,-0.109375 -0.109375,0 -1,0.6875 -1.59375,1.953125 -0.5,1.09375 -0.625,2.203125 -0.625,3.03125 0,0.78125 0.109375,1.984375 0.65625,3.125 C 2.25,1.84375 3.09375,2.5 3.203125,2.5 c 0.0625,0 0.09375,-0.03125 0.09375,-0.109375 z m 0,0"
             id="id-20285536-2fe4-4467-a9a5-be880cac2a19" />
        </g>
      </g>
      <g
         style="fill:#000000;fill-opacity:1"
         id="id-8e0b349a-858c-425c-a6f2-c4c909788731">
        <g
           transform="translate(160.515,134.765)"
           id="g3044">
          <path
             style="stroke:none"
             d="m 2.859375,-6.8125 c 0,0 0,-0.109375 -0.125,-0.109375 -0.234375,0 -0.953125,0.078125 -1.21875,0.109375 -0.078125,0 -0.1875,0.015625 -0.1875,0.1875 0,0.125 0.09375,0.125 0.234375,0.125 0.484375,0 0.5,0.0625 0.5,0.171875 L 2.03125,-6.125 0.59375,-0.390625 c -0.046875,0.140625 -0.046875,0.15625 -0.046875,0.21875 0,0.234375 0.203125,0.28125 0.296875,0.28125 0.125,0 0.265625,-0.09375 0.328125,-0.203125 0.046875,-0.09375 0.5,-1.9375 0.5625,-2.1875 0.34375,0.03125 1.15625,0.1875 1.15625,0.84375 0,0.078125 0,0.109375 -0.03125,0.21875 -0.015625,0.109375 -0.03125,0.234375 -0.03125,0.34375 0,0.578125 0.390625,0.984375 0.90625,0.984375 0.296875,0 0.578125,-0.15625 0.796875,-0.53125 0.25,-0.4375 0.359375,-0.984375 0.359375,-1 0,-0.109375 -0.09375,-0.109375 -0.125,-0.109375 -0.09375,0 -0.109375,0.046875 -0.140625,0.1875 -0.203125,0.71875 -0.421875,1.234375 -0.859375,1.234375 -0.203125,0 -0.328125,-0.109375 -0.328125,-0.46875 0,-0.171875 0.046875,-0.40625 0.078125,-0.5625 C 3.5625,-1.3125 3.5625,-1.34375 3.5625,-1.453125 3.5625,-2.09375 2.9375,-2.375 2.078125,-2.5 2.390625,-2.671875 2.71875,-2.984375 2.9375,-3.234375 3.421875,-3.765625 3.875,-4.1875 4.359375,-4.1875 c 0.0625,0 0.078125,0 0.09375,0.015625 0.125,0.015625 0.125,0.015625 0.21875,0.078125 0.015625,0 0.015625,0.015625 0.03125,0.03125 -0.46875,0.03125 -0.5625,0.421875 -0.5625,0.546875 0,0.15625 0.109375,0.34375 0.375,0.34375 0.265625,0 0.546875,-0.21875 0.546875,-0.609375 0,-0.296875 -0.234375,-0.625 -0.671875,-0.625 -0.28125,0 -0.734375,0.078125 -1.453125,0.875 -0.34375,0.375 -0.734375,0.78125 -1.109375,0.921875 z m 0,0"
             id="id-b31a52c7-ed5d-4cfe-b5ff-5a88a6520d14" />
        </g>
      </g>
      <g
         style="fill:#000000;fill-opacity:1"
         id="id-336ff102-7f3b-45f3-bc2d-2fc021a9e094">
        <g
           transform="translate(166.015,134.765)"
           id="g3048">
          <path
             style="stroke:none"
             d="m 2.875,-2.5 c 0,-0.765625 -0.109375,-1.96875 -0.65625,-3.109375 -0.59375,-1.21875 -1.453125,-1.875 -1.546875,-1.875 -0.0625,0 -0.109375,0.046875 -0.109375,0.109375 0,0.03125 0,0.046875 0.1875,0.234375 0.984375,0.984375 1.546875,2.5625 1.546875,4.640625 0,1.71875 -0.359375,3.46875 -1.59375,4.71875 C 0.5625,2.34375 0.5625,2.359375 0.5625,2.390625 0.5625,2.453125 0.609375,2.5 0.671875,2.5 0.765625,2.5 1.671875,1.8125 2.25,0.546875 2.765625,-0.546875 2.875,-1.65625 2.875,-2.5 Z m 0,0"
             id="id-4c9d7873-c4d4-4a50-b59e-8faa22056294" />
        </g>
      </g>
    </g>
  </g>
  <g
     ns3:version="1.1.0"
     ns3:texconverter="pdflatex"
     ns3:pdfconverter="inkscape"
     ns3:text="$k$"
     ns3:preamble="/home/ogurcan/talks/berlin19/default_packages.tex"
     ns3:scale="2.0"
     ns3:alignment="middle center"
     transform="matrix(2,0,0,2,366.38933,322.85018)"
     ns3:jacobian_sqrt="2.0"
     id="g3384">
    <defs
       id="id-5c1789b7-e58c-49bd-9010-b33e4a07af72">
      <g
         id="id-bcf20729-3f90-4d07-a19c-d60da835ef3c">
        <symbol
           overflow="visible"
           id="id-7040e0af-c60a-45fe-b89a-96d5d199621d">
          <path
             style="stroke:none"
             d=""
             id="id-39f6dc8f-00f0-4ff6-9e35-ad4ac9330423" />
        </symbol>
        <symbol
           overflow="visible"
           id="id-cc197e11-b4e2-4936-831d-784981b1b6aa">
          <path
             style="stroke:none"
             d="m 2.859375,-6.8125 c 0,0 0,-0.109375 -0.125,-0.109375 -0.234375,0 -0.953125,0.078125 -1.21875,0.109375 -0.078125,0 -0.1875,0.015625 -0.1875,0.1875 0,0.125 0.09375,0.125 0.234375,0.125 0.484375,0 0.5,0.0625 0.5,0.171875 L 2.03125,-6.125 0.59375,-0.390625 c -0.046875,0.140625 -0.046875,0.15625 -0.046875,0.21875 0,0.234375 0.203125,0.28125 0.296875,0.28125 0.125,0 0.265625,-0.09375 0.328125,-0.203125 0.046875,-0.09375 0.5,-1.9375 0.5625,-2.1875 0.34375,0.03125 1.15625,0.1875 1.15625,0.84375 0,0.078125 0,0.109375 -0.03125,0.21875 -0.015625,0.109375 -0.03125,0.234375 -0.03125,0.34375 0,0.578125 0.390625,0.984375 0.90625,0.984375 0.296875,0 0.578125,-0.15625 0.796875,-0.53125 0.25,-0.4375 0.359375,-0.984375 0.359375,-1 0,-0.109375 -0.09375,-0.109375 -0.125,-0.109375 -0.09375,0 -0.109375,0.046875 -0.140625,0.1875 -0.203125,0.71875 -0.421875,1.234375 -0.859375,1.234375 -0.203125,0 -0.328125,-0.109375 -0.328125,-0.46875 0,-0.171875 0.046875,-0.40625 0.078125,-0.5625 C 3.5625,-1.3125 3.5625,-1.34375 3.5625,-1.453125 3.5625,-2.09375 2.9375,-2.375 2.078125,-2.5 2.390625,-2.671875 2.71875,-2.984375 2.9375,-3.234375 3.421875,-3.765625 3.875,-4.1875 4.359375,-4.1875 c 0.0625,0 0.078125,0 0.09375,0.015625 0.125,0.015625 0.125,0.015625 0.21875,0.078125 0.015625,0 0.015625,0.015625 0.03125,0.03125 -0.46875,0.03125 -0.5625,0.421875 -0.5625,0.546875 0,0.15625 0.109375,0.34375 0.375,0.34375 0.265625,0 0.546875,-0.21875 0.546875,-0.609375 0,-0.296875 -0.234375,-0.625 -0.671875,-0.625 -0.28125,0 -0.734375,0.078125 -1.453125,0.875 -0.34375,0.375 -0.734375,0.78125 -1.109375,0.921875 z m 0,0"
             id="id-29e92aa8-17ab-4a30-87dd-a1d26542b676" />
        </symbol>
      </g>
    </defs>
    <g
       id="id-105f6a08-d670-4c16-a75c-a28d099276ec"
       transform="translate(-149.259,-127.843)">
      <g
         style="fill:#000000;fill-opacity:1"
         id="id-7166677c-3192-42ab-b8b3-8b3165347047">
        <g
           transform="translate(148.712,134.765)"
           id="g3380">
          <path
             style="stroke:none"
             d="m 2.859375,-6.8125 c 0,0 0,-0.109375 -0.125,-0.109375 -0.234375,0 -0.953125,0.078125 -1.21875,0.109375 -0.078125,0 -0.1875,0.015625 -0.1875,0.1875 0,0.125 0.09375,0.125 0.234375,0.125 0.484375,0 0.5,0.0625 0.5,0.171875 L 2.03125,-6.125 0.59375,-0.390625 c -0.046875,0.140625 -0.046875,0.15625 -0.046875,0.21875 0,0.234375 0.203125,0.28125 0.296875,0.28125 0.125,0 0.265625,-0.09375 0.328125,-0.203125 0.046875,-0.09375 0.5,-1.9375 0.5625,-2.1875 0.34375,0.03125 1.15625,0.1875 1.15625,0.84375 0,0.078125 0,0.109375 -0.03125,0.21875 -0.015625,0.109375 -0.03125,0.234375 -0.03125,0.34375 0,0.578125 0.390625,0.984375 0.90625,0.984375 0.296875,0 0.578125,-0.15625 0.796875,-0.53125 0.25,-0.4375 0.359375,-0.984375 0.359375,-1 0,-0.109375 -0.09375,-0.109375 -0.125,-0.109375 -0.09375,0 -0.109375,0.046875 -0.140625,0.1875 -0.203125,0.71875 -0.421875,1.234375 -0.859375,1.234375 -0.203125,0 -0.328125,-0.109375 -0.328125,-0.46875 0,-0.171875 0.046875,-0.40625 0.078125,-0.5625 C 3.5625,-1.3125 3.5625,-1.34375 3.5625,-1.453125 3.5625,-2.09375 2.9375,-2.375 2.078125,-2.5 2.390625,-2.671875 2.71875,-2.984375 2.9375,-3.234375 3.421875,-3.765625 3.875,-4.1875 4.359375,-4.1875 c 0.0625,0 0.078125,0 0.09375,0.015625 0.125,0.015625 0.125,0.015625 0.21875,0.078125 0.015625,0 0.015625,0.015625 0.03125,0.03125 -0.46875,0.03125 -0.5625,0.421875 -0.5625,0.546875 0,0.15625 0.109375,0.34375 0.375,0.34375 0.265625,0 0.546875,-0.21875 0.546875,-0.609375 0,-0.296875 -0.234375,-0.625 -0.671875,-0.625 -0.28125,0 -0.734375,0.078125 -1.453125,0.875 -0.34375,0.375 -0.734375,0.78125 -1.109375,0.921875 z m 0,0"
             id="id-44ac6b42-c133-4128-9c8c-6fdb1430679c" />
        </g>
      </g>
    </g>
  </g>
</svg>
