<?xml version="1.0" encoding="utf-8" standalone="no"?>
<!DOCTYPE svg PUBLIC "-//W3C//DTD SVG 1.1//EN"
  "http://www.w3.org/Graphics/SVG/1.1/DTD/svg11.dtd">
<!-- Created with matplotlib (https://matplotlib.org/) -->
<svg height="72pt" version="1.1" viewBox="0 0 1728 72" width="1728pt" xmlns="http://www.w3.org/2000/svg" xmlns:xlink="http://www.w3.org/1999/xlink">
 <metadata>
  <rdf:RDF xmlns:cc="http://creativecommons.org/ns#" xmlns:dc="http://purl.org/dc/elements/1.1/" xmlns:rdf="http://www.w3.org/1999/02/22-rdf-syntax-ns#">
   <cc:Work>
    <dc:type rdf:resource="http://purl.org/dc/dcmitype/StillImage"/>
    <dc:date>2020-11-23T16:56:12.707806</dc:date>
    <dc:format>image/svg+xml</dc:format>
    <dc:creator>
     <cc:Agent>
      <dc:title>Matplotlib v3.3.2, https://matplotlib.org/</dc:title>
     </cc:Agent>
    </dc:creator>
   </cc:Work>
  </rdf:RDF>
 </metadata>
 <defs>
  <style type="text/css">*{stroke-linecap:butt;stroke-linejoin:round;}</style>
 </defs>
 <g id="figure_1">
  <g id="patch_1">
   <path d="M 0 72 
L 1728 72 
L 1728 0 
L 0 0 
z
" style="fill:#ffffff;"/>
  </g>
  <g id="axes_1">
   <g id="QuadMesh_1">
    <path clip-path="url(#pf1595af34a)" d="M 259.2 61.2 
L 309.6 61.2 
L 309.6 10.8 
L 259.2 10.8 
L 259.2 61.2 
" style="fill:#fffefe;stroke:#000000;"/>
    <path clip-path="url(#pf1595af34a)" d="M 309.6 61.2 
L 360 61.2 
L 360 10.8 
L 309.6 10.8 
L 309.6 61.2 
" style="fill:#ffdada;stroke:#000000;"/>
    <path clip-path="url(#pf1595af34a)" d="M 360 61.2 
L 410.4 61.2 
L 410.4 10.8 
L 360 10.8 
L 360 61.2 
" style="fill:#ffb6b6;stroke:#000000;"/>
    <path clip-path="url(#pf1595af34a)" d="M 410.4 61.2 
L 460.8 61.2 
L 460.8 10.8 
L 410.4 10.8 
L 410.4 61.2 
" style="fill:#ff9292;stroke:#000000;"/>
    <path clip-path="url(#pf1595af34a)" d="M 460.8 61.2 
L 511.2 61.2 
L 511.2 10.8 
L 460.8 10.8 
L 460.8 61.2 
" style="fill:#ff6c6c;stroke:#000000;"/>
    <path clip-path="url(#pf1595af34a)" d="M 511.2 61.2 
L 561.6 61.2 
L 561.6 10.8 
L 511.2 10.8 
L 511.2 61.2 
" style="fill:#ff4848;stroke:#000000;"/>
    <path clip-path="url(#pf1595af34a)" d="M 561.6 61.2 
L 612 61.2 
L 612 10.8 
L 561.6 10.8 
L 561.6 61.2 
" style="fill:#ff2424;stroke:#000000;"/>
    <path clip-path="url(#pf1595af34a)" d="M 612 61.2 
L 662.4 61.2 
L 662.4 10.8 
L 612 10.8 
L 612 61.2 
" style="fill:#ff0000;stroke:#000000;"/>
    <path clip-path="url(#pf1595af34a)" d="M 662.4 61.2 
L 712.8 61.2 
L 712.8 10.8 
L 662.4 10.8 
L 662.4 61.2 
" style="fill:#fffefe;stroke:#000000;"/>
    <path clip-path="url(#pf1595af34a)" d="M 712.8 61.2 
L 763.2 61.2 
L 763.2 10.8 
L 712.8 10.8 
L 712.8 61.2 
" style="fill:#fffefe;stroke:#000000;"/>
    <path clip-path="url(#pf1595af34a)" d="M 763.2 61.2 
L 813.6 61.2 
L 813.6 10.8 
L 763.2 10.8 
L 763.2 61.2 
" style="fill:#fffefe;stroke:#000000;"/>
    <path clip-path="url(#pf1595af34a)" d="M 813.6 61.2 
L 864 61.2 
L 864 10.8 
L 813.6 10.8 
L 813.6 61.2 
" style="fill:#fffefe;stroke:#000000;"/>
    <path clip-path="url(#pf1595af34a)" d="M 864 61.2 
L 914.4 61.2 
L 914.4 10.8 
L 864 10.8 
L 864 61.2 
" style="fill:#fffefe;stroke:#000000;"/>
    <path clip-path="url(#pf1595af34a)" d="M 914.4 61.2 
L 964.8 61.2 
L 964.8 10.8 
L 914.4 10.8 
L 914.4 61.2 
" style="fill:#fffefe;stroke:#000000;"/>
    <path clip-path="url(#pf1595af34a)" d="M 964.8 61.2 
L 1015.2 61.2 
L 1015.2 10.8 
L 964.8 10.8 
L 964.8 61.2 
" style="fill:#fffefe;stroke:#000000;"/>
    <path clip-path="url(#pf1595af34a)" d="M 1015.2 61.2 
L 1065.6 61.2 
L 1065.6 10.8 
L 1015.2 10.8 
L 1015.2 61.2 
" style="fill:#fffefe;stroke:#000000;"/>
    <path clip-path="url(#pf1595af34a)" d="M 1065.6 61.2 
L 1116 61.2 
L 1116 10.8 
L 1065.6 10.8 
L 1065.6 61.2 
" style="fill:#fffefe;stroke:#000000;"/>
    <path clip-path="url(#pf1595af34a)" d="M 1116 61.2 
L 1166.4 61.2 
L 1166.4 10.8 
L 1116 10.8 
L 1116 61.2 
" style="fill:#ff0000;stroke:#000000;"/>
    <path clip-path="url(#pf1595af34a)" d="M 1166.4 61.2 
L 1216.8 61.2 
L 1216.8 10.8 
L 1166.4 10.8 
L 1166.4 61.2 
" style="fill:#ff2424;stroke:#000000;"/>
    <path clip-path="url(#pf1595af34a)" d="M 1216.8 61.2 
L 1267.2 61.2 
L 1267.2 10.8 
L 1216.8 10.8 
L 1216.8 61.2 
" style="fill:#ff4848;stroke:#000000;"/>
    <path clip-path="url(#pf1595af34a)" d="M 1267.2 61.2 
L 1317.6 61.2 
L 1317.6 10.8 
L 1267.2 10.8 
L 1267.2 61.2 
" style="fill:#ff6c6c;stroke:#000000;"/>
    <path clip-path="url(#pf1595af34a)" d="M 1317.6 61.2 
L 1368 61.2 
L 1368 10.8 
L 1317.6 10.8 
L 1317.6 61.2 
" style="fill:#ff9292;stroke:#000000;"/>
    <path clip-path="url(#pf1595af34a)" d="M 1368 61.2 
L 1418.4 61.2 
L 1418.4 10.8 
L 1368 10.8 
L 1368 61.2 
" style="fill:#ffb6b6;stroke:#000000;"/>
    <path clip-path="url(#pf1595af34a)" d="M 1418.4 61.2 
L 1468.8 61.2 
L 1468.8 10.8 
L 1418.4 10.8 
L 1418.4 61.2 
" style="fill:#ffdada;stroke:#000000;"/>
   </g>
   <g id="text_1">
    <!-- 0j -->
    <g transform="translate(281.228203 37.915006)scale(0.0694 -0.0694)">
     <defs>
      <path d="M 31.78125 66.40625 
Q 24.171875 66.40625 20.328125 58.90625 
Q 16.5 51.421875 16.5 36.375 
Q 16.5 21.390625 20.328125 13.890625 
Q 24.171875 6.390625 31.78125 6.390625 
Q 39.453125 6.390625 43.28125 13.890625 
Q 47.125 21.390625 47.125 36.375 
Q 47.125 51.421875 43.28125 58.90625 
Q 39.453125 66.40625 31.78125 66.40625 
z
M 31.78125 74.21875 
Q 44.046875 74.21875 50.515625 64.515625 
Q 56.984375 54.828125 56.984375 36.375 
Q 56.984375 17.96875 50.515625 8.265625 
Q 44.046875 -1.421875 31.78125 -1.421875 
Q 19.53125 -1.421875 13.0625 8.265625 
Q 6.59375 17.96875 6.59375 36.375 
Q 6.59375 54.828125 13.0625 64.515625 
Q 19.53125 74.21875 31.78125 74.21875 
z
" id="DejaVuSans-48"/>
      <path d="M 9.421875 54.6875 
L 18.40625 54.6875 
L 18.40625 -0.984375 
Q 18.40625 -11.421875 14.421875 -16.109375 
Q 10.453125 -20.796875 1.609375 -20.796875 
L -1.8125 -20.796875 
L -1.8125 -13.1875 
L 0.59375 -13.1875 
Q 5.71875 -13.1875 7.5625 -10.8125 
Q 9.421875 -8.453125 9.421875 -0.984375 
z
M 9.421875 75.984375 
L 18.40625 75.984375 
L 18.40625 64.59375 
L 9.421875 64.59375 
z
" id="DejaVuSans-106"/>
     </defs>
     <use xlink:href="#DejaVuSans-48"/>
     <use x="63.623047" xlink:href="#DejaVuSans-106"/>
    </g>
   </g>
   <g id="text_2">
    <!-- (1+2j) -->
    <g transform="translate(323.80498 37.915006)scale(0.0694 -0.0694)">
     <defs>
      <path d="M 31 75.875 
Q 24.46875 64.65625 21.28125 53.65625 
Q 18.109375 42.671875 18.109375 31.390625 
Q 18.109375 20.125 21.3125 9.0625 
Q 24.515625 -2 31 -13.1875 
L 23.1875 -13.1875 
Q 15.875 -1.703125 12.234375 9.375 
Q 8.59375 20.453125 8.59375 31.390625 
Q 8.59375 42.28125 12.203125 53.3125 
Q 15.828125 64.359375 23.1875 75.875 
z
" id="DejaVuSans-40"/>
      <path d="M 12.40625 8.296875 
L 28.515625 8.296875 
L 28.515625 63.921875 
L 10.984375 60.40625 
L 10.984375 69.390625 
L 28.421875 72.90625 
L 38.28125 72.90625 
L 38.28125 8.296875 
L 54.390625 8.296875 
L 54.390625 0 
L 12.40625 0 
z
" id="DejaVuSans-49"/>
      <path d="M 46 62.703125 
L 46 35.5 
L 73.1875 35.5 
L 73.1875 27.203125 
L 46 27.203125 
L 46 0 
L 37.796875 0 
L 37.796875 27.203125 
L 10.59375 27.203125 
L 10.59375 35.5 
L 37.796875 35.5 
L 37.796875 62.703125 
z
" id="DejaVuSans-43"/>
      <path d="M 19.1875 8.296875 
L 53.609375 8.296875 
L 53.609375 0 
L 7.328125 0 
L 7.328125 8.296875 
Q 12.9375 14.109375 22.625 23.890625 
Q 32.328125 33.6875 34.8125 36.53125 
Q 39.546875 41.84375 41.421875 45.53125 
Q 43.3125 49.21875 43.3125 52.78125 
Q 43.3125 58.59375 39.234375 62.25 
Q 35.15625 65.921875 28.609375 65.921875 
Q 23.96875 65.921875 18.8125 64.3125 
Q 13.671875 62.703125 7.8125 59.421875 
L 7.8125 69.390625 
Q 13.765625 71.78125 18.9375 73 
Q 24.125 74.21875 28.421875 74.21875 
Q 39.75 74.21875 46.484375 68.546875 
Q 53.21875 62.890625 53.21875 53.421875 
Q 53.21875 48.921875 51.53125 44.890625 
Q 49.859375 40.875 45.40625 35.40625 
Q 44.1875 33.984375 37.640625 27.21875 
Q 31.109375 20.453125 19.1875 8.296875 
z
" id="DejaVuSans-50"/>
      <path d="M 8.015625 75.875 
L 15.828125 75.875 
Q 23.140625 64.359375 26.78125 53.3125 
Q 30.421875 42.28125 30.421875 31.390625 
Q 30.421875 20.453125 26.78125 9.375 
Q 23.140625 -1.703125 15.828125 -13.1875 
L 8.015625 -13.1875 
Q 14.5 -2 17.703125 9.0625 
Q 20.90625 20.125 20.90625 31.390625 
Q 20.90625 42.671875 17.703125 53.65625 
Q 14.5 64.65625 8.015625 75.875 
z
" id="DejaVuSans-41"/>
     </defs>
     <use xlink:href="#DejaVuSans-40"/>
     <use x="39.013672" xlink:href="#DejaVuSans-49"/>
     <use x="102.636719" xlink:href="#DejaVuSans-43"/>
     <use x="186.425781" xlink:href="#DejaVuSans-50"/>
     <use x="250.048828" xlink:href="#DejaVuSans-106"/>
     <use x="277.832031" xlink:href="#DejaVuSans-41"/>
    </g>
   </g>
   <g id="text_3">
    <!-- (2+3j) -->
    <g transform="translate(374.20498 37.915006)scale(0.0694 -0.0694)">
     <defs>
      <path d="M 40.578125 39.3125 
Q 47.65625 37.796875 51.625 33 
Q 55.609375 28.21875 55.609375 21.1875 
Q 55.609375 10.40625 48.1875 4.484375 
Q 40.765625 -1.421875 27.09375 -1.421875 
Q 22.515625 -1.421875 17.65625 -0.515625 
Q 12.796875 0.390625 7.625 2.203125 
L 7.625 11.71875 
Q 11.71875 9.328125 16.59375 8.109375 
Q 21.484375 6.890625 26.8125 6.890625 
Q 36.078125 6.890625 40.9375 10.546875 
Q 45.796875 14.203125 45.796875 21.1875 
Q 45.796875 27.640625 41.28125 31.265625 
Q 36.765625 34.90625 28.71875 34.90625 
L 20.21875 34.90625 
L 20.21875 43.015625 
L 29.109375 43.015625 
Q 36.375 43.015625 40.234375 45.921875 
Q 44.09375 48.828125 44.09375 54.296875 
Q 44.09375 59.90625 40.109375 62.90625 
Q 36.140625 65.921875 28.71875 65.921875 
Q 24.65625 65.921875 20.015625 65.03125 
Q 15.375 64.15625 9.8125 62.3125 
L 9.8125 71.09375 
Q 15.4375 72.65625 20.34375 73.4375 
Q 25.25 74.21875 29.59375 74.21875 
Q 40.828125 74.21875 47.359375 69.109375 
Q 53.90625 64.015625 53.90625 55.328125 
Q 53.90625 49.265625 50.4375 45.09375 
Q 46.96875 40.921875 40.578125 39.3125 
z
" id="DejaVuSans-51"/>
     </defs>
     <use xlink:href="#DejaVuSans-40"/>
     <use x="39.013672" xlink:href="#DejaVuSans-50"/>
     <use x="102.636719" xlink:href="#DejaVuSans-43"/>
     <use x="186.425781" xlink:href="#DejaVuSans-51"/>
     <use x="250.048828" xlink:href="#DejaVuSans-106"/>
     <use x="277.832031" xlink:href="#DejaVuSans-41"/>
    </g>
   </g>
   <g id="text_4">
    <!-- (3+4j) -->
    <g transform="translate(424.60498 37.915006)scale(0.0694 -0.0694)">
     <defs>
      <path d="M 37.796875 64.3125 
L 12.890625 25.390625 
L 37.796875 25.390625 
z
M 35.203125 72.90625 
L 47.609375 72.90625 
L 47.609375 25.390625 
L 58.015625 25.390625 
L 58.015625 17.1875 
L 47.609375 17.1875 
L 47.609375 0 
L 37.796875 0 
L 37.796875 17.1875 
L 4.890625 17.1875 
L 4.890625 26.703125 
z
" id="DejaVuSans-52"/>
     </defs>
     <use xlink:href="#DejaVuSans-40"/>
     <use x="39.013672" xlink:href="#DejaVuSans-51"/>
     <use x="102.636719" xlink:href="#DejaVuSans-43"/>
     <use x="186.425781" xlink:href="#DejaVuSans-52"/>
     <use x="250.048828" xlink:href="#DejaVuSans-106"/>
     <use x="277.832031" xlink:href="#DejaVuSans-41"/>
    </g>
   </g>
   <g id="text_5">
    <!-- (4+5j) -->
    <g transform="translate(475.00498 37.915006)scale(0.0694 -0.0694)">
     <defs>
      <path d="M 10.796875 72.90625 
L 49.515625 72.90625 
L 49.515625 64.59375 
L 19.828125 64.59375 
L 19.828125 46.734375 
Q 21.96875 47.46875 24.109375 47.828125 
Q 26.265625 48.1875 28.421875 48.1875 
Q 40.625 48.1875 47.75 41.5 
Q 54.890625 34.8125 54.890625 23.390625 
Q 54.890625 11.625 47.5625 5.09375 
Q 40.234375 -1.421875 26.90625 -1.421875 
Q 22.3125 -1.421875 17.546875 -0.640625 
Q 12.796875 0.140625 7.71875 1.703125 
L 7.71875 11.625 
Q 12.109375 9.234375 16.796875 8.0625 
Q 21.484375 6.890625 26.703125 6.890625 
Q 35.15625 6.890625 40.078125 11.328125 
Q 45.015625 15.765625 45.015625 23.390625 
Q 45.015625 31 40.078125 35.4375 
Q 35.15625 39.890625 26.703125 39.890625 
Q 22.75 39.890625 18.8125 39.015625 
Q 14.890625 38.140625 10.796875 36.28125 
z
" id="DejaVuSans-53"/>
     </defs>
     <use xlink:href="#DejaVuSans-40"/>
     <use x="39.013672" xlink:href="#DejaVuSans-52"/>
     <use x="102.636719" xlink:href="#DejaVuSans-43"/>
     <use x="186.425781" xlink:href="#DejaVuSans-53"/>
     <use x="250.048828" xlink:href="#DejaVuSans-106"/>
     <use x="277.832031" xlink:href="#DejaVuSans-41"/>
    </g>
   </g>
   <g id="text_6">
    <!-- (5+6j) -->
    <g transform="translate(525.40498 37.915006)scale(0.0694 -0.0694)">
     <defs>
      <path d="M 33.015625 40.375 
Q 26.375 40.375 22.484375 35.828125 
Q 18.609375 31.296875 18.609375 23.390625 
Q 18.609375 15.53125 22.484375 10.953125 
Q 26.375 6.390625 33.015625 6.390625 
Q 39.65625 6.390625 43.53125 10.953125 
Q 47.40625 15.53125 47.40625 23.390625 
Q 47.40625 31.296875 43.53125 35.828125 
Q 39.65625 40.375 33.015625 40.375 
z
M 52.59375 71.296875 
L 52.59375 62.3125 
Q 48.875 64.0625 45.09375 64.984375 
Q 41.3125 65.921875 37.59375 65.921875 
Q 27.828125 65.921875 22.671875 59.328125 
Q 17.53125 52.734375 16.796875 39.40625 
Q 19.671875 43.65625 24.015625 45.921875 
Q 28.375 48.1875 33.59375 48.1875 
Q 44.578125 48.1875 50.953125 41.515625 
Q 57.328125 34.859375 57.328125 23.390625 
Q 57.328125 12.15625 50.6875 5.359375 
Q 44.046875 -1.421875 33.015625 -1.421875 
Q 20.359375 -1.421875 13.671875 8.265625 
Q 6.984375 17.96875 6.984375 36.375 
Q 6.984375 53.65625 15.1875 63.9375 
Q 23.390625 74.21875 37.203125 74.21875 
Q 40.921875 74.21875 44.703125 73.484375 
Q 48.484375 72.75 52.59375 71.296875 
z
" id="DejaVuSans-54"/>
     </defs>
     <use xlink:href="#DejaVuSans-40"/>
     <use x="39.013672" xlink:href="#DejaVuSans-53"/>
     <use x="102.636719" xlink:href="#DejaVuSans-43"/>
     <use x="186.425781" xlink:href="#DejaVuSans-54"/>
     <use x="250.048828" xlink:href="#DejaVuSans-106"/>
     <use x="277.832031" xlink:href="#DejaVuSans-41"/>
    </g>
   </g>
   <g id="text_7">
    <!-- (6+7j) -->
    <g transform="translate(575.80498 37.915006)scale(0.0694 -0.0694)">
     <defs>
      <path d="M 8.203125 72.90625 
L 55.078125 72.90625 
L 55.078125 68.703125 
L 28.609375 0 
L 18.3125 0 
L 43.21875 64.59375 
L 8.203125 64.59375 
z
" id="DejaVuSans-55"/>
     </defs>
     <use xlink:href="#DejaVuSans-40"/>
     <use x="39.013672" xlink:href="#DejaVuSans-54"/>
     <use x="102.636719" xlink:href="#DejaVuSans-43"/>
     <use x="186.425781" xlink:href="#DejaVuSans-55"/>
     <use x="250.048828" xlink:href="#DejaVuSans-106"/>
     <use x="277.832031" xlink:href="#DejaVuSans-41"/>
    </g>
   </g>
   <g id="text_8">
    <!-- (7+8j) -->
    <g transform="translate(626.20498 37.915006)scale(0.0694 -0.0694)">
     <defs>
      <path d="M 31.78125 34.625 
Q 24.75 34.625 20.71875 30.859375 
Q 16.703125 27.09375 16.703125 20.515625 
Q 16.703125 13.921875 20.71875 10.15625 
Q 24.75 6.390625 31.78125 6.390625 
Q 38.8125 6.390625 42.859375 10.171875 
Q 46.921875 13.96875 46.921875 20.515625 
Q 46.921875 27.09375 42.890625 30.859375 
Q 38.875 34.625 31.78125 34.625 
z
M 21.921875 38.8125 
Q 15.578125 40.375 12.03125 44.71875 
Q 8.5 49.078125 8.5 55.328125 
Q 8.5 64.0625 14.71875 69.140625 
Q 20.953125 74.21875 31.78125 74.21875 
Q 42.671875 74.21875 48.875 69.140625 
Q 55.078125 64.0625 55.078125 55.328125 
Q 55.078125 49.078125 51.53125 44.71875 
Q 48 40.375 41.703125 38.8125 
Q 48.828125 37.15625 52.796875 32.3125 
Q 56.78125 27.484375 56.78125 20.515625 
Q 56.78125 9.90625 50.3125 4.234375 
Q 43.84375 -1.421875 31.78125 -1.421875 
Q 19.734375 -1.421875 13.25 4.234375 
Q 6.78125 9.90625 6.78125 20.515625 
Q 6.78125 27.484375 10.78125 32.3125 
Q 14.796875 37.15625 21.921875 38.8125 
z
M 18.3125 54.390625 
Q 18.3125 48.734375 21.84375 45.5625 
Q 25.390625 42.390625 31.78125 42.390625 
Q 38.140625 42.390625 41.71875 45.5625 
Q 45.3125 48.734375 45.3125 54.390625 
Q 45.3125 60.0625 41.71875 63.234375 
Q 38.140625 66.40625 31.78125 66.40625 
Q 25.390625 66.40625 21.84375 63.234375 
Q 18.3125 60.0625 18.3125 54.390625 
z
" id="DejaVuSans-56"/>
     </defs>
     <use xlink:href="#DejaVuSans-40"/>
     <use x="39.013672" xlink:href="#DejaVuSans-55"/>
     <use x="102.636719" xlink:href="#DejaVuSans-43"/>
     <use x="186.425781" xlink:href="#DejaVuSans-56"/>
     <use x="250.048828" xlink:href="#DejaVuSans-106"/>
     <use x="277.832031" xlink:href="#DejaVuSans-41"/>
    </g>
   </g>
   <g id="text_9">
    <!-- 0j -->
    <g transform="translate(684.428203 37.915006)scale(0.0694 -0.0694)">
     <use xlink:href="#DejaVuSans-48"/>
     <use x="63.623047" xlink:href="#DejaVuSans-106"/>
    </g>
   </g>
   <g id="text_10">
    <!-- 0j -->
    <g transform="translate(734.828203 37.915006)scale(0.0694 -0.0694)">
     <use xlink:href="#DejaVuSans-48"/>
     <use x="63.623047" xlink:href="#DejaVuSans-106"/>
    </g>
   </g>
   <g id="text_11">
    <!-- 0j -->
    <g transform="translate(785.228203 37.915006)scale(0.0694 -0.0694)">
     <use xlink:href="#DejaVuSans-48"/>
     <use x="63.623047" xlink:href="#DejaVuSans-106"/>
    </g>
   </g>
   <g id="text_12">
    <!-- 0j -->
    <g transform="translate(835.628203 37.915006)scale(0.0694 -0.0694)">
     <use xlink:href="#DejaVuSans-48"/>
     <use x="63.623047" xlink:href="#DejaVuSans-106"/>
    </g>
   </g>
   <g id="text_13">
    <!-- 0j -->
    <g transform="translate(886.028203 37.915006)scale(0.0694 -0.0694)">
     <use xlink:href="#DejaVuSans-48"/>
     <use x="63.623047" xlink:href="#DejaVuSans-106"/>
    </g>
   </g>
   <g id="text_14">
    <!-- 0j -->
    <g transform="translate(936.428203 37.915006)scale(0.0694 -0.0694)">
     <use xlink:href="#DejaVuSans-48"/>
     <use x="63.623047" xlink:href="#DejaVuSans-106"/>
    </g>
   </g>
   <g id="text_15">
    <!-- 0j -->
    <g transform="translate(986.828203 37.915006)scale(0.0694 -0.0694)">
     <use xlink:href="#DejaVuSans-48"/>
     <use x="63.623047" xlink:href="#DejaVuSans-106"/>
    </g>
   </g>
   <g id="text_16">
    <!-- 0j -->
    <g transform="translate(1037.228203 37.915006)scale(0.0694 -0.0694)">
     <use xlink:href="#DejaVuSans-48"/>
     <use x="63.623047" xlink:href="#DejaVuSans-106"/>
    </g>
   </g>
   <g id="text_17">
    <!-- 0j -->
    <g transform="translate(1087.628203 37.915006)scale(0.0694 -0.0694)">
     <use xlink:href="#DejaVuSans-48"/>
     <use x="63.623047" xlink:href="#DejaVuSans-106"/>
    </g>
   </g>
   <g id="text_18">
    <!-- (7-8j) -->
    <g transform="translate(1131.86082 37.915006)scale(0.0694 -0.0694)">
     <defs>
      <path d="M 4.890625 31.390625 
L 31.203125 31.390625 
L 31.203125 23.390625 
L 4.890625 23.390625 
z
" id="DejaVuSans-45"/>
     </defs>
     <use xlink:href="#DejaVuSans-40"/>
     <use x="39.013672" xlink:href="#DejaVuSans-55"/>
     <use x="102.636719" xlink:href="#DejaVuSans-45"/>
     <use x="138.720703" xlink:href="#DejaVuSans-56"/>
     <use x="202.34375" xlink:href="#DejaVuSans-106"/>
     <use x="230.126953" xlink:href="#DejaVuSans-41"/>
    </g>
   </g>
   <g id="text_19">
    <!-- (6-7j) -->
    <g transform="translate(1182.26082 37.915006)scale(0.0694 -0.0694)">
     <use xlink:href="#DejaVuSans-40"/>
     <use x="39.013672" xlink:href="#DejaVuSans-54"/>
     <use x="102.636719" xlink:href="#DejaVuSans-45"/>
     <use x="138.720703" xlink:href="#DejaVuSans-55"/>
     <use x="202.34375" xlink:href="#DejaVuSans-106"/>
     <use x="230.126953" xlink:href="#DejaVuSans-41"/>
    </g>
   </g>
   <g id="text_20">
    <!-- (5-6j) -->
    <g transform="translate(1232.66082 37.915006)scale(0.0694 -0.0694)">
     <use xlink:href="#DejaVuSans-40"/>
     <use x="39.013672" xlink:href="#DejaVuSans-53"/>
     <use x="102.636719" xlink:href="#DejaVuSans-45"/>
     <use x="138.720703" xlink:href="#DejaVuSans-54"/>
     <use x="202.34375" xlink:href="#DejaVuSans-106"/>
     <use x="230.126953" xlink:href="#DejaVuSans-41"/>
    </g>
   </g>
   <g id="text_21">
    <!-- (4-5j) -->
    <g transform="translate(1283.06082 37.915006)scale(0.0694 -0.0694)">
     <use xlink:href="#DejaVuSans-40"/>
     <use x="39.013672" xlink:href="#DejaVuSans-52"/>
     <use x="102.636719" xlink:href="#DejaVuSans-45"/>
     <use x="138.720703" xlink:href="#DejaVuSans-53"/>
     <use x="202.34375" xlink:href="#DejaVuSans-106"/>
     <use x="230.126953" xlink:href="#DejaVuSans-41"/>
    </g>
   </g>
   <g id="text_22">
    <!-- (3-4j) -->
    <g transform="translate(1333.46082 37.915006)scale(0.0694 -0.0694)">
     <use xlink:href="#DejaVuSans-40"/>
     <use x="39.013672" xlink:href="#DejaVuSans-51"/>
     <use x="102.636719" xlink:href="#DejaVuSans-45"/>
     <use x="138.720703" xlink:href="#DejaVuSans-52"/>
     <use x="202.34375" xlink:href="#DejaVuSans-106"/>
     <use x="230.126953" xlink:href="#DejaVuSans-41"/>
    </g>
   </g>
   <g id="text_23">
    <!-- (2-3j) -->
    <g transform="translate(1383.86082 37.915006)scale(0.0694 -0.0694)">
     <use xlink:href="#DejaVuSans-40"/>
     <use x="39.013672" xlink:href="#DejaVuSans-50"/>
     <use x="102.636719" xlink:href="#DejaVuSans-45"/>
     <use x="138.720703" xlink:href="#DejaVuSans-51"/>
     <use x="202.34375" xlink:href="#DejaVuSans-106"/>
     <use x="230.126953" xlink:href="#DejaVuSans-41"/>
    </g>
   </g>
   <g id="text_24">
    <!-- (1-2j) -->
    <g transform="translate(1434.26082 37.915006)scale(0.0694 -0.0694)">
     <use xlink:href="#DejaVuSans-40"/>
     <use x="39.013672" xlink:href="#DejaVuSans-49"/>
     <use x="102.636719" xlink:href="#DejaVuSans-45"/>
     <use x="138.720703" xlink:href="#DejaVuSans-50"/>
     <use x="202.34375" xlink:href="#DejaVuSans-106"/>
     <use x="230.126953" xlink:href="#DejaVuSans-41"/>
    </g>
   </g>
  </g>
 </g>
 <defs>
  <clipPath id="pf1595af34a">
   <rect height="50.4" width="1209.6" x="259.2" y="10.8"/>
  </clipPath>
 </defs>
</svg>
